<svg width="400" height="650" viewBox="0 0 400 650" fill="none" xmlns="http://www.w3.org/2000/svg">
<g id="Frame 7">
<rect x="7.5" y="7.5" width="385" height="635" fill="white"/>
<path id="10" d="M163.072 387H146.725V278.631L113.941 290.672V275.906L160.523 258.416H163.072V387ZM290.953 332.42C290.953 351.463 287.701 365.613 281.197 374.871C274.693 384.129 264.527 388.758 250.699 388.758C237.047 388.758 226.939 384.246 220.377 375.223C213.814 366.141 210.416 352.605 210.182 334.617V312.908C210.182 294.1 213.434 280.125 219.938 270.984C226.441 261.844 236.637 257.273 250.523 257.273C264.293 257.273 274.43 261.697 280.934 270.545C287.438 279.334 290.777 292.928 290.953 311.326V332.42ZM274.693 310.184C274.693 296.414 272.76 286.395 268.893 280.125C265.025 273.797 258.902 270.633 250.523 270.633C242.203 270.633 236.139 273.768 232.33 280.037C228.521 286.307 226.559 295.945 226.441 308.953V334.969C226.441 348.797 228.434 359.021 232.418 365.643C236.461 372.205 242.555 375.486 250.699 375.486C258.727 375.486 264.674 372.381 268.541 366.17C272.467 359.959 274.518 350.174 274.693 336.814V310.184Z" fill="#0038FF"/>
<rect x="7.5" y="7.5" width="385" height="635" stroke="#0038FF" stroke-width="15"/>
</g>
</svg>
