<svg width="400" height="650" viewBox="0 0 400 650" fill="none" xmlns="http://www.w3.org/2000/svg">
<g id="Frame 8">
<rect x="7.5" y="7.5" width="385" height="635" fill="white"/>
<path id="12" d="M163.072 386H146.725V277.631L113.941 289.672V274.906L160.523 257.416H163.072V386ZM294.557 386H210.709V374.311L255.006 325.092C261.568 317.65 266.08 311.615 268.541 306.986C271.061 302.299 272.32 297.465 272.32 292.484C272.32 285.805 270.299 280.326 266.256 276.049C262.213 271.771 256.822 269.633 250.084 269.633C241.998 269.633 235.699 271.947 231.188 276.576C226.734 281.146 224.508 287.533 224.508 295.736H208.248C208.248 283.959 212.027 274.438 219.586 267.172C227.203 259.906 237.369 256.273 250.084 256.273C261.979 256.273 271.383 259.408 278.297 265.678C285.211 271.889 288.668 280.18 288.668 290.551C288.668 303.148 280.641 318.148 264.586 335.551L230.309 372.729H294.557V386Z" fill="#0038FF"/>
<rect x="7.5" y="7.5" width="385" height="635" stroke="#0038FF" stroke-width="15"/>
</g>
</svg>
