<svg width="400" height="650" viewBox="0 0 400 650" fill="none" xmlns="http://www.w3.org/2000/svg">
<g id="Frame 11">
<rect x="7.5" y="7.5" width="385" height="635" fill="white"/>
<path id="1/ 13" d="M163.072 281H146.725V172.631L113.941 184.672V169.906L160.523 152.416H163.072V281ZM215.631 291.986H201.656L255.094 153.031H268.98L215.631 291.986ZM163.072 492H146.725V383.631L113.941 395.672V380.906L160.523 363.416H163.072V492ZM234.352 420.105H246.568C254.244 419.988 260.279 417.967 264.674 414.041C269.068 410.115 271.266 404.812 271.266 398.133C271.266 383.133 263.795 375.633 248.854 375.633C241.822 375.633 236.197 377.654 231.979 381.697C227.818 385.682 225.738 390.984 225.738 397.605H209.479C209.479 387.469 213.17 379.061 220.553 372.381C227.994 365.643 237.428 362.273 248.854 362.273C260.924 362.273 270.387 365.467 277.242 371.854C284.098 378.24 287.525 387.117 287.525 398.484C287.525 404.051 285.709 409.441 282.076 414.656C278.502 419.871 273.609 423.768 267.398 426.346C274.43 428.572 279.85 432.264 283.658 437.42C287.525 442.576 289.459 448.875 289.459 456.316C289.459 467.801 285.709 476.912 278.209 483.65C270.709 490.389 260.953 493.758 248.941 493.758C236.93 493.758 227.145 490.506 219.586 484.002C212.086 477.498 208.336 468.914 208.336 458.25H224.684C224.684 464.988 226.881 470.379 231.275 474.422C235.67 478.465 241.559 480.486 248.941 480.486C256.793 480.486 262.799 478.436 266.959 474.334C271.119 470.232 273.199 464.344 273.199 456.668C273.199 449.227 270.914 443.514 266.344 439.529C261.773 435.545 255.182 433.494 246.568 433.377H234.352V420.105Z" fill="#E00A0A"/>
<rect x="7.5" y="7.5" width="385" height="635" stroke="#E00A0A" stroke-width="15"/>
</g>
</svg>
