<svg width="400" height="650" viewBox="0 0 400 650" fill="none" xmlns="http://www.w3.org/2000/svg">
<rect x="7.5" y="7.5" width="385" height="635" fill="white"/>
<path d="M243.482 387H159.635V375.311L203.932 326.092C210.494 318.65 215.006 312.615 217.467 307.986C219.986 303.299 221.246 298.465 221.246 293.484C221.246 286.805 219.225 281.326 215.182 277.049C211.139 272.771 205.748 270.633 199.01 270.633C190.924 270.633 184.625 272.947 180.113 277.576C175.66 282.146 173.434 288.533 173.434 296.736H157.174C157.174 284.959 160.953 275.438 168.512 268.172C176.129 260.906 186.295 257.273 199.01 257.273C210.904 257.273 220.309 260.408 227.223 266.678C234.137 272.889 237.594 281.18 237.594 291.551C237.594 304.148 229.566 319.148 213.512 336.551L179.234 373.729H243.482V387Z" fill="#0038FF"/>
<rect x="7.5" y="7.5" width="385" height="635" stroke="#0038FF" stroke-width="15"/>
</svg>
