<svg width="87" height="130" viewBox="0 0 87 130" fill="none" xmlns="http://www.w3.org/2000/svg">
<path id="2" d="M86.4824 130H2.63477V118.311L46.9316 69.0918C53.4941 61.6504 58.0059 55.6152 60.4668 50.9863C62.9863 46.2988 64.2461 41.4648 64.2461 36.4844C64.2461 29.8047 62.2246 24.3262 58.1816 20.0488C54.1387 15.7715 48.748 13.6328 42.0098 13.6328C33.9238 13.6328 27.625 15.9473 23.1133 20.5762C18.6602 25.1465 16.4336 31.5332 16.4336 39.7363H0.173828C0.173828 27.959 3.95312 18.4375 11.5117 11.1719C19.1289 3.90625 29.2949 0.273438 42.0098 0.273438C53.9043 0.273438 63.3086 3.4082 70.2227 9.67773C77.1367 15.8887 80.5938 24.1797 80.5938 34.5508C80.5938 47.1484 72.5664 62.1484 56.5117 79.5508L22.2344 116.729H86.4824V130Z" fill="#0038FF"/>
</svg>
