<svg width="400" height="650" viewBox="0 0 400 650" fill="none" xmlns="http://www.w3.org/2000/svg">
<g id="Frame 2">
<rect x="7.5" y="7.5" width="385" height="635" fill="white"/>
<path id="3" d="M183.277 315.105H195.494C203.17 314.988 209.205 312.967 213.6 309.041C217.994 305.115 220.191 299.812 220.191 293.133C220.191 278.133 212.721 270.633 197.779 270.633C190.748 270.633 185.123 272.654 180.904 276.697C176.744 280.682 174.664 285.984 174.664 292.605H158.404C158.404 282.469 162.096 274.061 169.479 267.381C176.92 260.643 186.354 257.273 197.779 257.273C209.85 257.273 219.312 260.467 226.168 266.854C233.023 273.24 236.451 282.117 236.451 293.484C236.451 299.051 234.635 304.441 231.002 309.656C227.428 314.871 222.535 318.768 216.324 321.346C223.355 323.572 228.775 327.264 232.584 332.42C236.451 337.576 238.385 343.875 238.385 351.316C238.385 362.801 234.635 371.912 227.135 378.65C219.635 385.389 209.879 388.758 197.867 388.758C185.855 388.758 176.07 385.506 168.512 379.002C161.012 372.498 157.262 363.914 157.262 353.25H173.609C173.609 359.988 175.807 365.379 180.201 369.422C184.596 373.465 190.484 375.486 197.867 375.486C205.719 375.486 211.725 373.436 215.885 369.334C220.045 365.232 222.125 359.344 222.125 351.668C222.125 344.227 219.84 338.514 215.27 334.529C210.699 330.545 204.107 328.494 195.494 328.377H183.277V315.105Z" fill="#0038FF"/>
<rect x="7.5" y="7.5" width="385" height="635" stroke="#0038FF" stroke-width="15"/>
</g>
</svg>
