<svg width="400" height="650" viewBox="0 0 400 650" fill="none" xmlns="http://www.w3.org/2000/svg">
<g id="Frame 3">
<rect x="7.5" y="7.5" width="385" height="635" fill="white"/>
<path id="5" d="M167.105 322.84L173.609 259.031H239.176V274.061H187.408L183.541 308.953C189.811 305.262 196.93 303.416 204.898 303.416C216.559 303.416 225.816 307.283 232.672 315.018C239.527 322.693 242.955 333.094 242.955 346.219C242.955 359.402 239.381 369.803 232.232 377.42C225.143 384.979 215.211 388.758 202.438 388.758C191.129 388.758 181.9 385.623 174.752 379.354C167.604 373.084 163.531 364.412 162.535 353.338H177.916C178.912 360.662 181.52 366.199 185.738 369.949C189.957 373.641 195.523 375.486 202.438 375.486C209.996 375.486 215.914 372.908 220.191 367.752C224.527 362.596 226.695 355.477 226.695 346.395C226.695 337.84 224.352 330.984 219.664 325.828C215.035 320.613 208.854 318.006 201.119 318.006C194.029 318.006 188.463 319.559 184.42 322.664L180.113 326.18L167.105 322.84Z" fill="#0038FF"/>
<rect x="7.5" y="7.5" width="385" height="635" stroke="#0038FF" stroke-width="15"/>
</g>
</svg>
