<svg width="400" height="650" viewBox="0 0 400 650" fill="none" xmlns="http://www.w3.org/2000/svg">
<g id="Frame 4">
<rect x="7.5" y="7.5" width="385" height="635" fill="white"/>
<path id="6" d="M223.443 258.943V272.742H220.455C207.799 272.977 197.721 276.727 190.221 283.992C182.721 291.258 178.385 301.482 177.213 314.666C183.951 306.932 193.15 303.064 204.811 303.064C215.943 303.064 224.82 306.99 231.441 314.842C238.121 322.693 241.461 332.83 241.461 345.252C241.461 358.436 237.857 368.982 230.65 376.893C223.502 384.803 213.893 388.758 201.822 388.758C189.576 388.758 179.645 384.07 172.027 374.695C164.41 365.262 160.602 353.133 160.602 338.309V332.068C160.602 308.514 165.611 290.525 175.631 278.104C185.709 265.623 200.68 259.236 220.543 258.943H223.443ZM202.086 316.6C196.52 316.6 191.393 318.27 186.705 321.609C182.018 324.949 178.766 329.139 176.949 334.178V340.154C176.949 350.701 179.322 359.197 184.068 365.643C188.814 372.088 194.732 375.311 201.822 375.311C209.146 375.311 214.889 372.615 219.049 367.225C223.268 361.834 225.377 354.773 225.377 346.043C225.377 337.254 223.238 330.164 218.961 324.773C214.742 319.324 209.117 316.6 202.086 316.6Z" fill="#0038FF"/>
<rect x="7.5" y="7.5" width="385" height="635" stroke="#0038FF" stroke-width="15"/>
</g>
</svg>
