<svg width="400" height="650" viewBox="0 0 400 650" fill="none" xmlns="http://www.w3.org/2000/svg">
<g id="Frame 5">
<rect x="7.5" y="7.5" width="385" height="635" fill="white"/>
<path id="8" d="M237.242 292.43C237.242 298.816 235.543 304.5 232.145 309.48C228.805 314.461 224.264 318.357 218.521 321.17C225.201 324.041 230.475 328.23 234.342 333.738C238.268 339.246 240.23 345.486 240.23 352.459C240.23 363.533 236.48 372.352 228.98 378.914C221.539 385.477 211.725 388.758 199.537 388.758C187.232 388.758 177.359 385.477 169.918 378.914C162.535 372.293 158.844 363.475 158.844 352.459C158.844 345.545 160.719 339.305 164.469 333.738C168.277 328.172 173.521 323.953 180.201 321.082C174.518 318.27 170.035 314.373 166.754 309.393C163.473 304.412 161.832 298.758 161.832 292.43C161.832 281.648 165.289 273.094 172.203 266.766C179.117 260.438 188.229 257.273 199.537 257.273C210.787 257.273 219.869 260.438 226.783 266.766C233.756 273.094 237.242 281.648 237.242 292.43ZM223.971 352.107C223.971 344.959 221.686 339.129 217.115 334.617C212.604 330.105 206.686 327.85 199.361 327.85C192.037 327.85 186.148 330.076 181.695 334.529C177.301 338.982 175.104 344.842 175.104 352.107C175.104 359.373 177.242 365.086 181.52 369.246C185.855 373.406 191.861 375.486 199.537 375.486C207.154 375.486 213.131 373.406 217.467 369.246C221.803 365.027 223.971 359.314 223.971 352.107ZM199.537 270.633C193.15 270.633 187.965 272.625 183.98 276.609C180.055 280.535 178.092 285.896 178.092 292.693C178.092 299.197 180.025 304.471 183.893 308.514C187.818 312.498 193.033 314.49 199.537 314.49C206.041 314.49 211.227 312.498 215.094 308.514C219.02 304.471 220.982 299.197 220.982 292.693C220.982 286.189 218.961 280.887 214.918 276.785C210.875 272.684 205.748 270.633 199.537 270.633Z" fill="#0038FF"/>
<rect x="7.5" y="7.5" width="385" height="635" stroke="#0038FF" stroke-width="15"/>
</g>
</svg>
