<svg width="400" height="650" viewBox="0 0 400 650" fill="none" xmlns="http://www.w3.org/2000/svg">
<g id="Frame 6">
<rect x="7.5" y="7.5" width="385" height="635" fill="white"/>
<path id="9" d="M221.949 330.75C218.551 334.793 214.479 338.045 209.732 340.506C205.045 342.967 199.889 344.197 194.264 344.197C186.881 344.197 180.436 342.381 174.928 338.748C169.479 335.115 165.26 330.018 162.271 323.455C159.283 316.834 157.789 309.539 157.789 301.57C157.789 293.016 159.4 285.311 162.623 278.455C165.904 271.6 170.533 266.355 176.51 262.723C182.486 259.09 189.459 257.273 197.428 257.273C210.084 257.273 220.045 262.02 227.311 271.512C234.635 280.945 238.297 293.836 238.297 310.184V314.93C238.297 339.832 233.375 358.025 223.531 369.51C213.688 380.936 198.834 386.795 178.971 387.088H175.807V373.377H179.234C192.652 373.143 202.965 369.656 210.172 362.918C217.379 356.121 221.305 345.398 221.949 330.75ZM196.9 330.75C202.35 330.75 207.359 329.08 211.93 325.74C216.559 322.4 219.928 318.27 222.037 313.348V306.844C222.037 296.18 219.723 287.508 215.094 280.828C210.465 274.148 204.605 270.809 197.516 270.809C190.367 270.809 184.625 273.562 180.289 279.07C175.953 284.52 173.785 291.727 173.785 300.691C173.785 309.422 175.865 316.629 180.025 322.312C184.244 327.938 189.869 330.75 196.9 330.75Z" fill="#0038FF"/>
<rect x="7.5" y="7.5" width="385" height="635" stroke="#0038FF" stroke-width="15"/>
</g>
</svg>
