<svg width="400" height="650" viewBox="0 0 400 650" fill="none" xmlns="http://www.w3.org/2000/svg">
<g id="Frame 10">
<rect x="7.5" y="7.5" width="385" height="635" fill="white"/>
<g id="Group 1">
<g id="exchange-alt-solid 1">
<path id="Vector" d="M100 290.625V284.375C100 279.197 104.197 275 109.375 275H250V256.25C250 247.904 260.117 243.734 266.004 249.621L297.254 280.871C300.915 284.532 300.915 290.468 297.254 294.129L266.004 325.379C260.139 331.243 250 327.131 250 318.75V300H109.375C104.197 300 100 295.803 100 290.625ZM290.625 350H150V331.25C150 322.924 139.898 318.719 133.996 324.621L102.746 355.871C99.0848 359.532 99.0848 365.468 102.746 369.129L133.996 400.379C139.866 406.249 150 402.124 150 393.75V375H290.625C295.803 375 300 370.803 300 365.625V359.375C300 354.197 295.803 350 290.625 350Z" fill="#E00A0A"/>
</g>
</g>
<rect x="7.5" y="7.5" width="385" height="635" stroke="#E00A0A" stroke-width="15"/>
</g>
</svg>
