<svg width="400" height="650" viewBox="0 0 400 650" fill="none" xmlns="http://www.w3.org/2000/svg">
<rect x="7.5" y="7.5" width="385" height="635" fill="white"/>
<path d="M188.377 350.965C188.494 343.992 189.285 338.484 190.75 334.441C192.215 330.398 195.203 325.916 199.715 320.994L211.229 309.129C216.15 303.562 218.611 297.586 218.611 291.199C218.611 285.047 217 280.242 213.777 276.785C210.555 273.27 205.867 271.512 199.715 271.512C193.738 271.512 188.934 273.094 185.301 276.258C181.668 279.422 179.852 283.67 179.852 289.002H163.592C163.709 279.51 167.078 271.863 173.699 266.062C180.379 260.203 189.051 257.273 199.715 257.273C210.789 257.273 219.402 260.262 225.555 266.238C231.766 272.156 234.871 280.301 234.871 290.672C234.871 300.926 230.125 311.033 220.633 320.994L211.053 330.486C206.775 335.232 204.637 342.059 204.637 350.965H188.377ZM187.674 378.826C187.674 376.189 188.465 373.992 190.047 372.234C191.688 370.418 194.09 369.51 197.254 369.51C200.418 369.51 202.82 370.418 204.461 372.234C206.102 373.992 206.922 376.189 206.922 378.826C206.922 381.463 206.102 383.66 204.461 385.418C202.82 387.117 200.418 387.967 197.254 387.967C194.09 387.967 191.688 387.117 190.047 385.418C188.465 383.66 187.674 381.463 187.674 378.826Z" fill="#E00A0A"/>
<rect x="7.5" y="7.5" width="385" height="635" stroke="#E00A0A" stroke-width="15"/>
</svg>
