<svg width="72" height="131" viewBox="0 0 72 131" fill="none" xmlns="http://www.w3.org/2000/svg">
<path id="?" d="M25.377 93.9648C25.4941 86.9922 26.2852 81.4844 27.75 77.4414C29.2148 73.3984 32.2031 68.916 36.7148 63.9941L48.2285 52.1289C53.1504 46.5625 55.6113 40.5859 55.6113 34.1992C55.6113 28.0469 54 23.2422 50.7773 19.7852C47.5547 16.2695 42.8672 14.5117 36.7148 14.5117C30.7383 14.5117 25.9336 16.0938 22.3008 19.2578C18.668 22.4219 16.8516 26.6699 16.8516 32.002H0.591797C0.708984 22.5098 4.07812 14.8633 10.6992 9.0625C17.3789 3.20312 26.0508 0.273438 36.7148 0.273438C47.7891 0.273438 56.4023 3.26172 62.5547 9.23828C68.7656 15.1562 71.8711 23.3008 71.8711 33.6719C71.8711 43.9258 67.125 54.0332 57.6328 63.9941L48.0527 73.4863C43.7754 78.2324 41.6367 85.0586 41.6367 93.9648H25.377ZM24.6738 121.826C24.6738 119.189 25.4648 116.992 27.0469 115.234C28.6875 113.418 31.0898 112.51 34.2539 112.51C37.418 112.51 39.8203 113.418 41.4609 115.234C43.1016 116.992 43.9219 119.189 43.9219 121.826C43.9219 124.463 43.1016 126.66 41.4609 128.418C39.8203 130.117 37.418 130.967 34.2539 130.967C31.0898 130.967 28.6875 130.117 27.0469 128.418C25.4648 126.66 24.6738 124.463 24.6738 121.826Z" fill="#E00A0A"/>
</svg>
