<svg width="1920" height="1080" viewBox="0 0 1920 1080" fill="none" xmlns="http://www.w3.org/2000/svg">
<rect width="1920" height="1080" fill="#0769B0"/>
<path d="M185.815 119.185L181.435 91.4965C180.272 84.9195 175.083 79.6184 168.224 78.001H168.214C152.289 74.2533 135.708 74.2533 119.783 78.001C112.916 79.6184 107.728 84.9182 106.565 91.4965L102.185 119.185C100.832 126.842 107.093 133.812 115.323 133.812C121.842 133.812 127.631 129.878 129.692 124.045L130.679 121.25H157.323L158.306 124.045C160.37 129.878 166.158 133.812 172.677 133.812C180.908 133.812 187.168 126.842 185.815 119.185ZM179.894 126.367C178.151 128.437 175.52 129.625 172.676 129.625C167.924 129.625 163.741 126.823 162.269 122.654L161.28 119.859L160.293 117.062H127.707L126.718 119.859L125.73 122.654C124.257 126.823 120.074 129.625 115.323 129.625C112.48 129.625 109.849 128.437 108.104 126.367C107.339 125.479 106.782 124.432 106.475 123.302C106.169 122.172 106.119 120.988 106.331 119.837L110.699 92.2254C111.573 87.292 115.519 83.3086 120.744 82.0746C136.038 78.4742 151.962 78.4742 167.256 82.0746C172.485 83.3073 176.427 87.2907 177.286 92.1508L181.679 119.913C182.087 122.221 181.454 124.514 179.894 126.367ZM135.361 97.7424H129.778V92.1757C129.776 91.8353 129.64 91.5092 129.399 91.2685C129.157 91.0278 128.83 90.892 128.489 90.8906H125.911C125.57 90.892 125.243 91.0278 125.001 91.2685C124.76 91.5092 124.624 91.8353 124.622 92.1757V97.7424H119.039C118.698 97.7438 118.37 97.8796 118.129 98.1203C117.888 98.361 117.751 98.6871 117.75 99.0275V101.598C117.751 101.938 117.888 102.264 118.129 102.505C118.37 102.745 118.698 102.881 119.039 102.883H124.622V108.449C124.624 108.79 124.76 109.116 125.001 109.356C125.243 109.597 125.57 109.733 125.911 109.734H128.489C128.83 109.733 129.157 109.597 129.399 109.356C129.64 109.116 129.776 108.79 129.778 108.449V102.883H135.361C135.703 102.881 136.03 102.745 136.271 102.505C136.512 102.264 136.649 101.938 136.65 101.598V99.0275C136.649 98.6871 136.512 98.361 136.271 98.1203C136.03 97.8796 135.703 97.7438 135.361 97.7424ZM156.6 100.312C155.769 100.312 154.957 100.558 154.267 101.018C153.576 101.478 153.038 102.132 152.72 102.898C152.402 103.663 152.319 104.505 152.481 105.317C152.643 106.129 153.043 106.875 153.63 107.461C154.218 108.047 154.966 108.445 155.781 108.607C156.595 108.769 157.44 108.686 158.207 108.369C158.975 108.052 159.631 107.515 160.092 106.826C160.554 106.138 160.8 105.328 160.8 104.5C160.8 103.389 160.358 102.324 159.57 101.539C158.782 100.754 157.714 100.312 156.6 100.312ZM165 91.9375C164.169 91.9375 163.357 92.1831 162.667 92.6432C161.976 93.1033 161.438 93.7573 161.12 94.5225C160.802 95.2877 160.719 96.1296 160.881 96.9419C161.043 97.7542 161.443 98.5004 162.03 99.086C162.618 99.6716 163.366 100.07 164.181 100.232C164.995 100.394 165.84 100.311 166.607 99.9937C167.375 99.6768 168.031 99.1401 168.492 98.4514C168.954 97.7628 169.2 96.9532 169.2 96.125C169.2 95.0144 168.758 93.9493 167.97 93.164C167.182 92.3787 166.114 91.9375 165 91.9375Z" fill="#005695"/>
<path d="M817.815 722.185L813.435 694.496C812.272 687.92 807.083 682.618 800.223 681.001H800.214C784.289 677.253 767.708 677.253 751.783 681.001C744.916 682.618 739.728 687.918 738.565 694.496L734.185 722.185C732.832 729.842 739.093 736.812 747.323 736.812C753.842 736.812 759.63 732.878 761.692 727.045L762.679 724.25H789.323L790.306 727.045C792.369 732.878 798.158 736.812 804.677 736.812C812.907 736.812 819.168 729.842 817.815 722.185ZM811.894 729.367C810.151 731.437 807.52 732.625 804.675 732.625C799.924 732.625 795.741 729.823 794.269 725.654L793.28 722.859L792.293 720.062H759.707L758.718 722.859L757.73 725.654C756.257 729.823 752.074 732.625 747.323 732.625C744.48 732.625 741.849 731.437 740.104 729.367C739.339 728.479 738.782 727.432 738.475 726.302C738.169 725.172 738.119 723.988 738.331 722.837L742.699 695.225C743.573 690.292 747.519 686.309 752.744 685.075C768.038 681.474 783.962 681.474 799.256 685.075C804.485 686.307 808.427 690.291 809.286 695.151L813.679 722.913C814.087 725.221 813.453 727.514 811.894 729.367ZM767.361 700.742H761.778V695.176C761.776 694.835 761.64 694.509 761.399 694.269C761.157 694.028 760.83 693.892 760.489 693.891H757.911C757.57 693.892 757.243 694.028 757.001 694.269C756.76 694.509 756.624 694.835 756.622 695.176V700.742H751.039C750.697 700.744 750.37 700.88 750.129 701.12C749.888 701.361 749.751 701.687 749.75 702.027V704.598C749.751 704.938 749.888 705.264 750.129 705.505C750.37 705.745 750.697 705.881 751.039 705.883H756.622V711.449C756.624 711.79 756.76 712.116 757.001 712.356C757.243 712.597 757.57 712.733 757.911 712.734H760.489C760.83 712.733 761.157 712.597 761.399 712.356C761.64 712.116 761.776 711.79 761.778 711.449V705.883H767.361C767.703 705.881 768.03 705.745 768.271 705.505C768.512 705.264 768.649 704.938 768.65 704.598V702.027C768.649 701.687 768.512 701.361 768.271 701.12C768.03 700.88 767.703 700.744 767.361 700.742ZM788.6 703.312C787.769 703.312 786.957 703.558 786.267 704.018C785.576 704.478 785.038 705.132 784.72 705.898C784.402 706.663 784.319 707.505 784.481 708.317C784.643 709.129 785.043 709.875 785.63 710.461C786.218 711.047 786.966 711.445 787.781 711.607C788.595 711.769 789.44 711.686 790.207 711.369C790.975 711.052 791.631 710.515 792.092 709.826C792.554 709.138 792.8 708.328 792.8 707.5C792.8 706.389 792.357 705.324 791.57 704.539C790.782 703.754 789.714 703.312 788.6 703.312ZM797 694.937C796.169 694.937 795.357 695.183 794.667 695.643C793.976 696.103 793.438 696.757 793.12 697.523C792.802 698.288 792.719 699.13 792.881 699.942C793.043 700.754 793.443 701.5 794.03 702.086C794.618 702.672 795.366 703.07 796.181 703.232C796.995 703.394 797.84 703.311 798.607 702.994C799.375 702.677 800.031 702.14 800.492 701.451C800.954 700.763 801.2 699.953 801.2 699.125C801.2 698.014 800.757 696.949 799.97 696.164C799.182 695.379 798.114 694.937 797 694.937Z" fill="#005695"/>
<path d="M1141.81 759.185L1137.44 731.496C1136.27 724.92 1131.08 719.618 1124.22 718.001H1124.21C1108.29 714.253 1091.71 714.253 1075.78 718.001C1068.92 719.618 1063.73 724.918 1062.56 731.496L1058.19 759.185C1056.83 766.842 1063.09 773.812 1071.32 773.812C1077.84 773.812 1083.63 769.878 1085.69 764.045L1086.68 761.25H1113.32L1114.31 764.045C1116.37 769.878 1122.16 773.812 1128.68 773.812C1136.91 773.812 1143.17 766.842 1141.81 759.185ZM1135.89 766.367C1134.15 768.437 1131.52 769.625 1128.68 769.625C1123.92 769.625 1119.74 766.823 1118.27 762.654L1117.28 759.859L1116.29 757.062H1083.71L1082.72 759.859L1081.73 762.654C1080.26 766.823 1076.07 769.625 1071.32 769.625C1068.48 769.625 1065.85 768.437 1064.1 766.367C1063.34 765.479 1062.78 764.432 1062.48 763.302C1062.17 762.172 1062.12 760.988 1062.33 759.837L1066.7 732.225C1067.57 727.292 1071.52 723.309 1076.74 722.075C1092.04 718.474 1107.96 718.474 1123.26 722.075C1128.49 723.307 1132.43 727.291 1133.29 732.151L1137.68 759.913C1138.09 762.221 1137.45 764.514 1135.89 766.367ZM1091.36 737.742H1085.78V732.176C1085.78 731.835 1085.64 731.509 1085.4 731.269C1085.16 731.028 1084.83 730.892 1084.49 730.891H1081.91C1081.57 730.892 1081.24 731.028 1081 731.269C1080.76 731.509 1080.62 731.835 1080.62 732.176V737.742H1075.04C1074.7 737.744 1074.37 737.88 1074.13 738.12C1073.89 738.361 1073.75 738.687 1073.75 739.027V741.598C1073.75 741.938 1073.89 742.264 1074.13 742.505C1074.37 742.745 1074.7 742.881 1075.04 742.883H1080.62V748.449C1080.62 748.79 1080.76 749.116 1081 749.356C1081.24 749.597 1081.57 749.733 1081.91 749.734H1084.49C1084.83 749.733 1085.16 749.597 1085.4 749.356C1085.64 749.116 1085.78 748.79 1085.78 748.449V742.883H1091.36C1091.7 742.881 1092.03 742.745 1092.27 742.505C1092.51 742.264 1092.65 741.938 1092.65 741.598V739.027C1092.65 738.687 1092.51 738.361 1092.27 738.12C1092.03 737.88 1091.7 737.744 1091.36 737.742ZM1112.6 740.312C1111.77 740.312 1110.96 740.558 1110.27 741.018C1109.58 741.478 1109.04 742.132 1108.72 742.898C1108.4 743.663 1108.32 744.505 1108.48 745.317C1108.64 746.129 1109.04 746.875 1109.63 747.461C1110.22 748.047 1110.97 748.445 1111.78 748.607C1112.6 748.769 1113.44 748.686 1114.21 748.369C1114.97 748.052 1115.63 747.515 1116.09 746.826C1116.55 746.138 1116.8 745.328 1116.8 744.5C1116.8 743.389 1116.36 742.324 1115.57 741.539C1114.78 740.754 1113.71 740.312 1112.6 740.312ZM1121 731.937C1120.17 731.937 1119.36 732.183 1118.67 732.643C1117.98 733.103 1117.44 733.757 1117.12 734.523C1116.8 735.288 1116.72 736.13 1116.88 736.942C1117.04 737.754 1117.44 738.5 1118.03 739.086C1118.62 739.672 1119.37 740.07 1120.18 740.232C1121 740.394 1121.84 740.311 1122.61 739.994C1123.37 739.677 1124.03 739.14 1124.49 738.451C1124.95 737.763 1125.2 736.953 1125.2 736.125C1125.2 735.014 1124.76 733.949 1123.97 733.164C1123.18 732.379 1122.11 731.937 1121 731.937Z" fill="#005695"/>
<path d="M1830.81 789.185L1826.44 761.496C1825.27 754.92 1820.08 749.618 1813.22 748.001H1813.21C1797.29 744.253 1780.71 744.253 1764.78 748.001C1757.92 749.618 1752.73 754.918 1751.56 761.496L1747.19 789.185C1745.83 796.842 1752.09 803.812 1760.32 803.812C1766.84 803.812 1772.63 799.878 1774.69 794.045L1775.68 791.25H1802.32L1803.31 794.045C1805.37 799.878 1811.16 803.812 1817.68 803.812C1825.91 803.812 1832.17 796.842 1830.81 789.185ZM1824.89 796.367C1823.15 798.437 1820.52 799.625 1817.68 799.625C1812.92 799.625 1808.74 796.823 1807.27 792.654L1806.28 789.859L1805.29 787.062H1772.71L1771.72 789.859L1770.73 792.654C1769.26 796.823 1765.07 799.625 1760.32 799.625C1757.48 799.625 1754.85 798.437 1753.1 796.367C1752.34 795.479 1751.78 794.432 1751.48 793.302C1751.17 792.172 1751.12 790.988 1751.33 789.837L1755.7 762.225C1756.57 757.292 1760.52 753.309 1765.74 752.075C1781.04 748.474 1796.96 748.474 1812.26 752.075C1817.49 753.307 1821.43 757.291 1822.29 762.151L1826.68 789.913C1827.09 792.221 1826.45 794.514 1824.89 796.367ZM1780.36 767.742H1774.78V762.176C1774.78 761.835 1774.64 761.509 1774.4 761.269C1774.16 761.028 1773.83 760.892 1773.49 760.891H1770.91C1770.57 760.892 1770.24 761.028 1770 761.269C1769.76 761.509 1769.62 761.835 1769.62 762.176V767.742H1764.04C1763.7 767.744 1763.37 767.88 1763.13 768.12C1762.89 768.361 1762.75 768.687 1762.75 769.027V771.598C1762.75 771.938 1762.89 772.264 1763.13 772.505C1763.37 772.745 1763.7 772.881 1764.04 772.883H1769.62V778.449C1769.62 778.79 1769.76 779.116 1770 779.356C1770.24 779.597 1770.57 779.733 1770.91 779.734H1773.49C1773.83 779.733 1774.16 779.597 1774.4 779.356C1774.64 779.116 1774.78 778.79 1774.78 778.449V772.883H1780.36C1780.7 772.881 1781.03 772.745 1781.27 772.505C1781.51 772.264 1781.65 771.938 1781.65 771.598V769.027C1781.65 768.687 1781.51 768.361 1781.27 768.12C1781.03 767.88 1780.7 767.744 1780.36 767.742ZM1801.6 770.312C1800.77 770.312 1799.96 770.558 1799.27 771.018C1798.58 771.478 1798.04 772.132 1797.72 772.898C1797.4 773.663 1797.32 774.505 1797.48 775.317C1797.64 776.129 1798.04 776.875 1798.63 777.461C1799.22 778.047 1799.97 778.445 1800.78 778.607C1801.6 778.769 1802.44 778.686 1803.21 778.369C1803.97 778.052 1804.63 777.515 1805.09 776.826C1805.55 776.138 1805.8 775.328 1805.8 774.5C1805.8 773.389 1805.36 772.324 1804.57 771.539C1803.78 770.754 1802.71 770.312 1801.6 770.312ZM1810 761.937C1809.17 761.937 1808.36 762.183 1807.67 762.643C1806.98 763.103 1806.44 763.757 1806.12 764.523C1805.8 765.288 1805.72 766.13 1805.88 766.942C1806.04 767.754 1806.44 768.5 1807.03 769.086C1807.62 769.672 1808.37 770.07 1809.18 770.232C1810 770.394 1810.84 770.311 1811.61 769.994C1812.37 769.677 1813.03 769.14 1813.49 768.451C1813.95 767.763 1814.2 766.953 1814.2 766.125C1814.2 765.014 1813.76 763.949 1812.97 763.164C1812.18 762.379 1811.11 761.937 1810 761.937Z" fill="#005695"/>
<path d="M606.815 993.185L602.435 965.496C601.272 958.92 596.083 953.618 589.223 952.001H589.214C573.289 948.253 556.708 948.253 540.783 952.001C533.916 953.618 528.728 958.918 527.565 965.496L523.185 993.185C521.832 1000.84 528.093 1007.81 536.323 1007.81C542.842 1007.81 548.63 1003.88 550.692 998.045L551.679 995.25H578.323L579.306 998.045C581.369 1003.88 587.158 1007.81 593.677 1007.81C601.907 1007.81 608.168 1000.84 606.815 993.185ZM600.894 1000.37C599.151 1002.44 596.52 1003.62 593.675 1003.62C588.924 1003.62 584.741 1000.82 583.269 996.654L582.28 993.859L581.293 991.062H548.707L547.718 993.859L546.73 996.654C545.257 1000.82 541.074 1003.62 536.323 1003.62C533.48 1003.62 530.849 1002.44 529.104 1000.37C528.339 999.479 527.782 998.432 527.475 997.302C527.169 996.172 527.119 994.988 527.331 993.837L531.699 966.225C532.573 961.292 536.519 957.309 541.744 956.075C557.038 952.474 572.962 952.474 588.256 956.075C593.485 957.307 597.427 961.291 598.286 966.151L602.679 993.913C603.087 996.221 602.453 998.514 600.894 1000.37ZM556.361 971.742H550.778V966.176C550.776 965.835 550.64 965.509 550.399 965.269C550.157 965.028 549.83 964.892 549.489 964.891H546.911C546.57 964.892 546.243 965.028 546.001 965.269C545.76 965.509 545.624 965.835 545.622 966.176V971.742H540.039C539.697 971.744 539.37 971.88 539.129 972.12C538.888 972.361 538.751 972.687 538.75 973.027V975.598C538.751 975.938 538.888 976.264 539.129 976.505C539.37 976.745 539.697 976.881 540.039 976.883H545.622V982.449C545.624 982.79 545.76 983.116 546.001 983.356C546.243 983.597 546.57 983.733 546.911 983.734H549.489C549.83 983.733 550.157 983.597 550.399 983.356C550.64 983.116 550.776 982.79 550.778 982.449V976.883H556.361C556.703 976.881 557.03 976.745 557.271 976.505C557.512 976.264 557.649 975.938 557.65 975.598V973.027C557.649 972.687 557.512 972.361 557.271 972.12C557.03 971.88 556.703 971.744 556.361 971.742ZM577.6 974.312C576.769 974.312 575.957 974.558 575.267 975.018C574.576 975.478 574.038 976.132 573.72 976.898C573.402 977.663 573.319 978.505 573.481 979.317C573.643 980.129 574.043 980.875 574.63 981.461C575.218 982.047 575.966 982.445 576.781 982.607C577.595 982.769 578.44 982.686 579.207 982.369C579.975 982.052 580.631 981.515 581.092 980.826C581.554 980.138 581.8 979.328 581.8 978.5C581.8 977.389 581.357 976.324 580.57 975.539C579.782 974.754 578.714 974.312 577.6 974.312ZM586 965.937C585.169 965.937 584.357 966.183 583.667 966.643C582.976 967.103 582.438 967.757 582.12 968.523C581.802 969.288 581.719 970.13 581.881 970.942C582.043 971.754 582.443 972.5 583.03 973.086C583.618 973.672 584.366 974.07 585.181 974.232C585.995 974.394 586.84 974.311 587.607 973.994C588.375 973.677 589.031 973.14 589.492 972.451C589.954 971.763 590.2 970.953 590.2 970.125C590.2 969.014 589.757 967.949 588.97 967.164C588.182 966.379 587.114 965.937 586 965.937Z" fill="#005695"/>
<path d="M1636.81 243.185L1632.44 215.496C1631.27 208.92 1626.08 203.618 1619.22 202.001H1619.21C1603.29 198.253 1586.71 198.253 1570.78 202.001C1563.92 203.618 1558.73 208.918 1557.56 215.496L1553.19 243.185C1551.83 250.842 1558.09 257.812 1566.32 257.812C1572.84 257.812 1578.63 253.878 1580.69 248.045L1581.68 245.25H1608.32L1609.31 248.045C1611.37 253.878 1617.16 257.812 1623.68 257.812C1631.91 257.812 1638.17 250.842 1636.81 243.185ZM1630.89 250.367C1629.15 252.437 1626.52 253.625 1623.68 253.625C1618.92 253.625 1614.74 250.823 1613.27 246.654L1612.28 243.859L1611.29 241.062H1578.71L1577.72 243.859L1576.73 246.654C1575.26 250.823 1571.07 253.625 1566.32 253.625C1563.48 253.625 1560.85 252.437 1559.1 250.367C1558.34 249.479 1557.78 248.432 1557.48 247.302C1557.17 246.172 1557.12 244.988 1557.33 243.837L1561.7 216.225C1562.57 211.292 1566.52 207.309 1571.74 206.075C1587.04 202.474 1602.96 202.474 1618.26 206.075C1623.49 207.307 1627.43 211.291 1628.29 216.151L1632.68 243.913C1633.09 246.221 1632.45 248.514 1630.89 250.367ZM1586.36 221.742H1580.78V216.176C1580.78 215.835 1580.64 215.509 1580.4 215.269C1580.16 215.028 1579.83 214.892 1579.49 214.891H1576.91C1576.57 214.892 1576.24 215.028 1576 215.269C1575.76 215.509 1575.62 215.835 1575.62 216.176V221.742H1570.04C1569.7 221.744 1569.37 221.88 1569.13 222.12C1568.89 222.361 1568.75 222.687 1568.75 223.027V225.598C1568.75 225.938 1568.89 226.264 1569.13 226.505C1569.37 226.745 1569.7 226.881 1570.04 226.883H1575.62V232.449C1575.62 232.79 1575.76 233.116 1576 233.356C1576.24 233.597 1576.57 233.733 1576.91 233.734H1579.49C1579.83 233.733 1580.16 233.597 1580.4 233.356C1580.64 233.116 1580.78 232.79 1580.78 232.449V226.883H1586.36C1586.7 226.881 1587.03 226.745 1587.27 226.505C1587.51 226.264 1587.65 225.938 1587.65 225.598V223.027C1587.65 222.687 1587.51 222.361 1587.27 222.12C1587.03 221.88 1586.7 221.744 1586.36 221.742ZM1607.6 224.312C1606.77 224.312 1605.96 224.558 1605.27 225.018C1604.58 225.478 1604.04 226.132 1603.72 226.898C1603.4 227.663 1603.32 228.505 1603.48 229.317C1603.64 230.129 1604.04 230.875 1604.63 231.461C1605.22 232.047 1605.97 232.445 1606.78 232.607C1607.6 232.769 1608.44 232.686 1609.21 232.369C1609.97 232.052 1610.63 231.515 1611.09 230.826C1611.55 230.138 1611.8 229.328 1611.8 228.5C1611.8 227.389 1611.36 226.324 1610.57 225.539C1609.78 224.754 1608.71 224.312 1607.6 224.312ZM1616 215.937C1615.17 215.937 1614.36 216.183 1613.67 216.643C1612.98 217.103 1612.44 217.757 1612.12 218.523C1611.8 219.288 1611.72 220.13 1611.88 220.942C1612.04 221.754 1612.44 222.5 1613.03 223.086C1613.62 223.672 1614.37 224.07 1615.18 224.232C1616 224.394 1616.84 224.311 1617.61 223.994C1618.37 223.677 1619.03 223.14 1619.49 222.451C1619.95 221.763 1620.2 220.953 1620.2 220.125C1620.2 219.014 1619.76 217.949 1618.97 217.164C1618.18 216.379 1617.11 215.937 1616 215.937Z" fill="#005695"/>
<path d="M1282.81 271.185L1278.44 243.496C1277.27 236.92 1272.08 231.618 1265.22 230.001H1265.21C1249.29 226.253 1232.71 226.253 1216.78 230.001C1209.92 231.618 1204.73 236.918 1203.56 243.496L1199.19 271.185C1197.83 278.842 1204.09 285.812 1212.32 285.812C1218.84 285.812 1224.63 281.878 1226.69 276.045L1227.68 273.25H1254.32L1255.31 276.045C1257.37 281.878 1263.16 285.812 1269.68 285.812C1277.91 285.812 1284.17 278.842 1282.81 271.185ZM1276.89 278.367C1275.15 280.437 1272.52 281.625 1269.68 281.625C1264.92 281.625 1260.74 278.823 1259.27 274.654L1258.28 271.859L1257.29 269.062H1224.71L1223.72 271.859L1222.73 274.654C1221.26 278.823 1217.07 281.625 1212.32 281.625C1209.48 281.625 1206.85 280.437 1205.1 278.367C1204.34 277.479 1203.78 276.432 1203.48 275.302C1203.17 274.172 1203.12 272.988 1203.33 271.837L1207.7 244.225C1208.57 239.292 1212.52 235.309 1217.74 234.075C1233.04 230.474 1248.96 230.474 1264.26 234.075C1269.49 235.307 1273.43 239.291 1274.29 244.151L1278.68 271.913C1279.09 274.221 1278.45 276.514 1276.89 278.367ZM1232.36 249.742H1226.78V244.176C1226.78 243.835 1226.64 243.509 1226.4 243.269C1226.16 243.028 1225.83 242.892 1225.49 242.891H1222.91C1222.57 242.892 1222.24 243.028 1222 243.269C1221.76 243.509 1221.62 243.835 1221.62 244.176V249.742H1216.04C1215.7 249.744 1215.37 249.88 1215.13 250.12C1214.89 250.361 1214.75 250.687 1214.75 251.027V253.598C1214.75 253.938 1214.89 254.264 1215.13 254.505C1215.37 254.745 1215.7 254.881 1216.04 254.883H1221.62V260.449C1221.62 260.79 1221.76 261.116 1222 261.356C1222.24 261.597 1222.57 261.733 1222.91 261.734H1225.49C1225.83 261.733 1226.16 261.597 1226.4 261.356C1226.64 261.116 1226.78 260.79 1226.78 260.449V254.883H1232.36C1232.7 254.881 1233.03 254.745 1233.27 254.505C1233.51 254.264 1233.65 253.938 1233.65 253.598V251.027C1233.65 250.687 1233.51 250.361 1233.27 250.12C1233.03 249.88 1232.7 249.744 1232.36 249.742ZM1253.6 252.312C1252.77 252.312 1251.96 252.558 1251.27 253.018C1250.58 253.478 1250.04 254.132 1249.72 254.898C1249.4 255.663 1249.32 256.505 1249.48 257.317C1249.64 258.129 1250.04 258.875 1250.63 259.461C1251.22 260.047 1251.97 260.445 1252.78 260.607C1253.6 260.769 1254.44 260.686 1255.21 260.369C1255.97 260.052 1256.63 259.515 1257.09 258.826C1257.55 258.138 1257.8 257.328 1257.8 256.5C1257.8 255.389 1257.36 254.324 1256.57 253.539C1255.78 252.754 1254.71 252.312 1253.6 252.312ZM1262 243.937C1261.17 243.937 1260.36 244.183 1259.67 244.643C1258.98 245.103 1258.44 245.757 1258.12 246.523C1257.8 247.288 1257.72 248.13 1257.88 248.942C1258.04 249.754 1258.44 250.5 1259.03 251.086C1259.62 251.672 1260.37 252.07 1261.18 252.232C1262 252.394 1262.84 252.311 1263.61 251.994C1264.37 251.677 1265.03 251.14 1265.49 250.451C1265.95 249.763 1266.2 248.953 1266.2 248.125C1266.2 247.014 1265.76 245.949 1264.97 245.164C1264.18 244.379 1263.11 243.937 1262 243.937Z" fill="#005695"/>
<path d="M228.429 279.812H180.571C175.285 279.812 171 284.121 171 289.438V337.562C171 342.879 175.285 347.188 180.571 347.188H228.429C233.715 347.188 238 342.879 238 337.562V289.438C238 284.121 233.715 279.812 228.429 279.812ZM233.214 337.562C233.214 340.215 231.067 342.375 228.429 342.375H180.571C177.933 342.375 175.786 340.215 175.786 337.562V289.438C175.786 286.785 177.933 284.625 180.571 284.625H228.429C231.067 284.625 233.214 286.785 233.214 289.438V337.562ZM190.143 295.453C188.161 295.453 186.554 297.068 186.554 299.062C186.554 301.055 188.161 302.672 190.143 302.672C192.124 302.672 193.732 301.055 193.732 299.062C193.732 297.068 192.124 295.453 190.143 295.453ZM190.143 309.891C188.161 309.891 186.554 311.506 186.554 313.5C186.554 315.493 188.161 317.109 190.143 317.109C192.124 317.109 193.732 315.493 193.732 313.5C193.732 311.506 192.124 309.891 190.143 309.891ZM218.857 309.891C216.876 309.891 215.268 311.506 215.268 313.5C215.268 315.493 216.876 317.109 218.857 317.109C220.839 317.109 222.446 315.493 222.446 313.5C222.446 311.506 220.839 309.891 218.857 309.891ZM190.143 324.328C188.161 324.328 186.554 325.943 186.554 327.938C186.554 329.93 188.161 331.547 190.143 331.547C192.124 331.547 193.732 329.93 193.732 327.938C193.732 325.943 192.124 324.328 190.143 324.328ZM218.857 295.453C216.876 295.453 215.268 297.068 215.268 299.062C215.268 301.055 216.876 302.672 218.857 302.672C220.839 302.672 222.446 301.055 222.446 299.062C222.446 297.068 220.839 295.453 218.857 295.453ZM218.857 324.328C216.876 324.328 215.268 325.943 215.268 327.938C215.268 329.93 216.876 331.547 218.857 331.547C220.839 331.547 222.446 329.93 222.446 327.938C222.446 325.943 220.839 324.328 218.857 324.328Z" fill="#005695"/>
<path d="M1812.43 318.812H1764.57C1759.28 318.812 1755 323.121 1755 328.438V376.562C1755 381.879 1759.28 386.188 1764.57 386.188H1812.43C1817.72 386.188 1822 381.879 1822 376.562V328.438C1822 323.121 1817.72 318.812 1812.43 318.812ZM1817.21 376.562C1817.21 379.215 1815.07 381.375 1812.43 381.375H1764.57C1761.93 381.375 1759.79 379.215 1759.79 376.562V328.438C1759.79 325.785 1761.93 323.625 1764.57 323.625H1812.43C1815.07 323.625 1817.21 325.785 1817.21 328.438V376.562ZM1774.14 334.453C1772.16 334.453 1770.55 336.068 1770.55 338.062C1770.55 340.055 1772.16 341.672 1774.14 341.672C1776.12 341.672 1777.73 340.055 1777.73 338.062C1777.73 336.068 1776.12 334.453 1774.14 334.453ZM1774.14 348.891C1772.16 348.891 1770.55 350.506 1770.55 352.5C1770.55 354.493 1772.16 356.109 1774.14 356.109C1776.12 356.109 1777.73 354.493 1777.73 352.5C1777.73 350.506 1776.12 348.891 1774.14 348.891ZM1802.86 348.891C1800.88 348.891 1799.27 350.506 1799.27 352.5C1799.27 354.493 1800.88 356.109 1802.86 356.109C1804.84 356.109 1806.45 354.493 1806.45 352.5C1806.45 350.506 1804.84 348.891 1802.86 348.891ZM1774.14 363.328C1772.16 363.328 1770.55 364.943 1770.55 366.938C1770.55 368.93 1772.16 370.547 1774.14 370.547C1776.12 370.547 1777.73 368.93 1777.73 366.938C1777.73 364.943 1776.12 363.328 1774.14 363.328ZM1802.86 334.453C1800.88 334.453 1799.27 336.068 1799.27 338.062C1799.27 340.055 1800.88 341.672 1802.86 341.672C1804.84 341.672 1806.45 340.055 1806.45 338.062C1806.45 336.068 1804.84 334.453 1802.86 334.453ZM1802.86 363.328C1800.88 363.328 1799.27 364.943 1799.27 366.938C1799.27 368.93 1800.88 370.547 1802.86 370.547C1804.84 370.547 1806.45 368.93 1806.45 366.938C1806.45 364.943 1804.84 363.328 1802.86 363.328Z" fill="#005695"/>
<path d="M907.429 505.812H859.571C854.285 505.812 850 510.121 850 515.438V563.562C850 568.879 854.285 573.188 859.571 573.188H907.429C912.715 573.188 917 568.879 917 563.562V515.438C917 510.121 912.715 505.812 907.429 505.812ZM912.214 563.562C912.214 566.215 910.067 568.375 907.429 568.375H859.571C856.933 568.375 854.786 566.215 854.786 563.562V515.438C854.786 512.785 856.933 510.625 859.571 510.625H907.429C910.067 510.625 912.214 512.785 912.214 515.438V563.562ZM869.143 521.453C867.161 521.453 865.554 523.068 865.554 525.062C865.554 527.055 867.161 528.672 869.143 528.672C871.124 528.672 872.732 527.055 872.732 525.062C872.732 523.068 871.124 521.453 869.143 521.453ZM869.143 535.891C867.161 535.891 865.554 537.506 865.554 539.5C865.554 541.493 867.161 543.109 869.143 543.109C871.124 543.109 872.732 541.493 872.732 539.5C872.732 537.506 871.124 535.891 869.143 535.891ZM897.857 535.891C895.876 535.891 894.268 537.506 894.268 539.5C894.268 541.493 895.876 543.109 897.857 543.109C899.839 543.109 901.446 541.493 901.446 539.5C901.446 537.506 899.839 535.891 897.857 535.891ZM869.143 550.328C867.161 550.328 865.554 551.943 865.554 553.938C865.554 555.93 867.161 557.547 869.143 557.547C871.124 557.547 872.732 555.93 872.732 553.938C872.732 551.943 871.124 550.328 869.143 550.328ZM897.857 521.453C895.876 521.453 894.268 523.068 894.268 525.062C894.268 527.055 895.876 528.672 897.857 528.672C899.839 528.672 901.446 527.055 901.446 525.062C901.446 523.068 899.839 521.453 897.857 521.453ZM897.857 550.328C895.876 550.328 894.268 551.943 894.268 553.938C894.268 555.93 895.876 557.547 897.857 557.547C899.839 557.547 901.446 555.93 901.446 553.938C901.446 551.943 899.839 550.328 897.857 550.328Z" fill="#005695"/>
<path d="M210.429 670.812H162.571C157.285 670.812 153 675.121 153 680.438V728.562C153 733.879 157.285 738.188 162.571 738.188H210.429C215.715 738.188 220 733.879 220 728.562V680.438C220 675.121 215.715 670.812 210.429 670.812ZM215.214 728.562C215.214 731.215 213.067 733.375 210.429 733.375H162.571C159.933 733.375 157.786 731.215 157.786 728.562V680.438C157.786 677.785 159.933 675.625 162.571 675.625H210.429C213.067 675.625 215.214 677.785 215.214 680.438V728.562ZM172.143 686.453C170.161 686.453 168.554 688.068 168.554 690.062C168.554 692.055 170.161 693.672 172.143 693.672C174.124 693.672 175.732 692.055 175.732 690.062C175.732 688.068 174.124 686.453 172.143 686.453ZM172.143 700.891C170.161 700.891 168.554 702.506 168.554 704.5C168.554 706.493 170.161 708.109 172.143 708.109C174.124 708.109 175.732 706.493 175.732 704.5C175.732 702.506 174.124 700.891 172.143 700.891ZM200.857 700.891C198.876 700.891 197.268 702.506 197.268 704.5C197.268 706.493 198.876 708.109 200.857 708.109C202.839 708.109 204.446 706.493 204.446 704.5C204.446 702.506 202.839 700.891 200.857 700.891ZM172.143 715.328C170.161 715.328 168.554 716.943 168.554 718.938C168.554 720.93 170.161 722.547 172.143 722.547C174.124 722.547 175.732 720.93 175.732 718.938C175.732 716.943 174.124 715.328 172.143 715.328ZM200.857 686.453C198.876 686.453 197.268 688.068 197.268 690.062C197.268 692.055 198.876 693.672 200.857 693.672C202.839 693.672 204.446 692.055 204.446 690.062C204.446 688.068 202.839 686.453 200.857 686.453ZM200.857 715.328C198.876 715.328 197.268 716.943 197.268 718.938C197.268 720.93 198.876 722.547 200.857 722.547C202.839 722.547 204.446 720.93 204.446 718.938C204.446 716.943 202.839 715.328 200.857 715.328Z" fill="#005695"/>
<path d="M863.429 874.812H815.571C810.285 874.812 806 879.121 806 884.438V932.562C806 937.879 810.285 942.188 815.571 942.188H863.429C868.715 942.188 873 937.879 873 932.562V884.438C873 879.121 868.715 874.812 863.429 874.812ZM868.214 932.562C868.214 935.215 866.067 937.375 863.429 937.375H815.571C812.933 937.375 810.786 935.215 810.786 932.562V884.438C810.786 881.785 812.933 879.625 815.571 879.625H863.429C866.067 879.625 868.214 881.785 868.214 884.438V932.562ZM825.143 890.453C823.161 890.453 821.554 892.068 821.554 894.062C821.554 896.055 823.161 897.672 825.143 897.672C827.124 897.672 828.732 896.055 828.732 894.062C828.732 892.068 827.124 890.453 825.143 890.453ZM825.143 904.891C823.161 904.891 821.554 906.506 821.554 908.5C821.554 910.493 823.161 912.109 825.143 912.109C827.124 912.109 828.732 910.493 828.732 908.5C828.732 906.506 827.124 904.891 825.143 904.891ZM853.857 904.891C851.876 904.891 850.268 906.506 850.268 908.5C850.268 910.493 851.876 912.109 853.857 912.109C855.839 912.109 857.446 910.493 857.446 908.5C857.446 906.506 855.839 904.891 853.857 904.891ZM825.143 919.328C823.161 919.328 821.554 920.943 821.554 922.938C821.554 924.93 823.161 926.547 825.143 926.547C827.124 926.547 828.732 924.93 828.732 922.938C828.732 920.943 827.124 919.328 825.143 919.328ZM853.857 890.453C851.876 890.453 850.268 892.068 850.268 894.062C850.268 896.055 851.876 897.672 853.857 897.672C855.839 897.672 857.446 896.055 857.446 894.062C857.446 892.068 855.839 890.453 853.857 890.453ZM853.857 919.328C851.876 919.328 850.268 920.943 850.268 922.938C850.268 924.93 851.876 926.547 853.857 926.547C855.839 926.547 857.446 924.93 857.446 922.938C857.446 920.943 855.839 919.328 853.857 919.328Z" fill="#005695"/>
<path d="M446.444 136.75V128.828C446.444 127.823 445.619 127 444.611 127H399.389C398.381 127 397.556 127.823 397.556 128.828V136.75H379.833C378.825 136.75 378 137.573 378 138.578V147.963C378 157.423 388.404 168.438 402.551 170.525C407.043 179.772 413.811 184.281 419.556 185.287V200.125H406.417C404.217 200.125 402.444 201.907 402.444 204.101C402.444 204.604 402.857 205 403.361 205H440.639C441.143 205 441.556 204.604 441.556 204.101C441.556 201.907 439.783 200.125 437.583 200.125H424.444V185.287C430.204 184.281 436.957 179.772 441.449 170.525C455.611 168.438 466 157.408 466 147.963V138.578C466 137.573 465.175 136.75 464.167 136.75H446.444ZM382.889 147.963V141.625H397.556V145.281C397.556 153.173 398.625 159.739 400.382 165.116C389.901 162.42 382.889 154.117 382.889 147.963ZM422 180.625C411 180.625 402.444 164.781 402.444 145.281V131.875H441.556V145.281C441.556 164.781 433 180.625 422 180.625ZM461.111 147.963C461.111 154.117 454.083 162.42 443.618 165.116C445.375 159.739 446.444 153.173 446.444 145.281V141.625H461.111V147.963Z" fill="#005695"/>
<path d="M416.444 762.75V754.828C416.444 753.823 415.619 753 414.611 753H369.389C368.381 753 367.556 753.823 367.556 754.828V762.75H349.833C348.825 762.75 348 763.573 348 764.578V773.963C348 783.423 358.404 794.438 372.551 796.525C377.043 805.772 383.811 810.281 389.556 811.287V826.125H376.417C374.217 826.125 372.444 827.907 372.444 830.101C372.444 830.604 372.857 831 373.361 831H410.639C411.143 831 411.556 830.604 411.556 830.101C411.556 827.907 409.783 826.125 407.583 826.125H394.444V811.287C400.204 810.281 406.957 805.772 411.449 796.525C425.611 794.438 436 783.408 436 773.963V764.578C436 763.573 435.175 762.75 434.167 762.75H416.444ZM352.889 773.963V767.625H367.556V771.281C367.556 779.173 368.625 785.739 370.382 791.116C359.901 788.42 352.889 780.117 352.889 773.963ZM392 806.625C381 806.625 372.444 790.781 372.444 771.281V757.875H411.556V771.281C411.556 790.781 403 806.625 392 806.625ZM431.111 773.963C431.111 780.117 424.083 788.42 413.618 791.116C415.375 785.739 416.444 779.173 416.444 771.281V767.625H431.111V773.963Z" fill="#005695"/>
<path d="M1601.44 657.75V649.828C1601.44 648.823 1600.62 648 1599.61 648H1554.39C1553.38 648 1552.56 648.823 1552.56 649.828V657.75H1534.83C1533.82 657.75 1533 658.573 1533 659.578V668.963C1533 678.423 1543.4 689.438 1557.55 691.525C1562.04 700.772 1568.81 705.281 1574.56 706.287V721.125H1561.42C1559.22 721.125 1557.44 722.907 1557.44 725.101C1557.44 725.604 1557.86 726 1558.36 726H1595.64C1596.14 726 1596.56 725.604 1596.56 725.101C1596.56 722.907 1594.78 721.125 1592.58 721.125H1579.44V706.287C1585.2 705.281 1591.96 700.772 1596.45 691.525C1610.61 689.438 1621 678.408 1621 668.963V659.578C1621 658.573 1620.17 657.75 1619.17 657.75H1601.44ZM1537.89 668.963V662.625H1552.56V666.281C1552.56 674.173 1553.62 680.739 1555.38 686.116C1544.9 683.42 1537.89 675.117 1537.89 668.963ZM1577 701.625C1566 701.625 1557.44 685.781 1557.44 666.281V652.875H1596.56V666.281C1596.56 685.781 1588 701.625 1577 701.625ZM1616.11 668.963C1616.11 675.117 1609.08 683.42 1598.62 686.116C1600.38 680.739 1601.44 674.173 1601.44 666.281V662.625H1616.11V668.963Z" fill="#005695"/>
<path d="M1047.44 58.75V50.8281C1047.44 49.8227 1046.62 49 1045.61 49H1000.39C999.381 49 998.556 49.8227 998.556 50.8281V58.75H980.833C979.825 58.75 979 59.5727 979 60.5781V69.9625C979 79.423 989.404 90.4375 1003.55 92.5246C1008.04 101.772 1014.81 106.281 1020.56 107.287V122.125H1007.42C1005.22 122.125 1003.44 123.907 1003.44 126.101C1003.44 126.604 1003.86 127 1004.36 127H1041.64C1042.14 127 1042.56 126.604 1042.56 126.101C1042.56 123.907 1040.78 122.125 1038.58 122.125H1025.44V107.287C1031.2 106.281 1037.96 101.772 1042.45 92.5246C1056.61 90.4375 1067 79.4078 1067 69.9625V60.5781C1067 59.5727 1066.17 58.75 1065.17 58.75H1047.44ZM983.889 69.9625V63.625H998.556V67.2812C998.556 75.1727 999.625 81.7387 1001.38 87.1164C990.901 84.4199 983.889 76.1172 983.889 69.9625ZM1023 102.625C1012 102.625 1003.44 86.7812 1003.44 67.2812V53.875H1042.56V67.2812C1042.56 86.7812 1034 102.625 1023 102.625ZM1062.11 69.9625C1062.11 76.1172 1055.08 84.4199 1044.62 87.1164C1046.38 81.7387 1047.44 75.1727 1047.44 67.2812V63.625H1062.11V69.9625Z" fill="#005695"/>
<g clip-path="url(#clip0)">
<path d="M556 308C555.663 308 555.325 308.005 554.984 308.015C536.924 308.557 523 324.314 523 342.384V387.745C523 389.402 524.356 390.5 525.771 390.5C526.446 390.5 527.135 390.249 527.696 389.689L531.979 386.504C532.47 386.14 533.046 385.961 533.618 385.961C534.38 385.961 535.134 386.275 535.676 386.885L543.058 395.196C543.594 395.732 544.299 396.002 545.002 396.002C545.705 396.002 546.409 395.734 546.946 395.196L553.944 387.315C554.491 386.7 555.245 386.39 556 386.39C556.755 386.39 557.509 386.698 558.056 387.315L565.054 395.196C565.591 395.732 566.295 396.002 566.998 396.002C567.701 396.002 568.406 395.734 568.942 395.196L576.324 386.885C576.781 386.371 577.414 386.046 578.098 385.975C578.783 385.905 579.469 386.093 580.021 386.504L584.304 389.689C584.865 390.249 585.554 390.5 586.229 390.5C587.642 390.5 589 389.402 589 387.745V341C589 322.774 574.226 308 556 308ZM583.5 382.236L583.306 382.092C581.872 381.025 580.171 380.463 578.383 380.463C576.027 380.463 573.779 381.473 572.215 383.233L567 389.103L562.169 383.663C560.605 381.901 558.356 380.892 556 380.892C553.644 380.892 551.395 381.903 549.831 383.663L545 389.103L539.785 383.233C539.011 382.362 538.061 381.665 536.998 381.187C535.935 380.709 534.782 380.463 533.617 380.463C531.831 380.463 530.129 381.026 528.696 382.092L528.5 382.236V342.384C528.5 326.906 540.456 313.954 555.149 313.514L556 313.5C571.163 313.5 583.5 325.837 583.5 341V382.236ZM545 335.5C541.963 335.5 539.5 337.963 539.5 341C539.5 344.037 541.963 346.5 545 346.5C548.037 346.5 550.5 344.037 550.5 341C550.5 337.963 548.037 335.5 545 335.5ZM567 335.5C563.963 335.5 561.5 337.963 561.5 341C561.5 344.037 563.963 346.5 567 346.5C570.037 346.5 572.5 344.037 572.5 341C572.5 337.963 570.037 335.5 567 335.5Z" fill="#005695"/>
</g>
<g clip-path="url(#clip1)">
<path d="M1316 529C1315.66 529 1315.32 529.005 1314.98 529.015C1296.92 529.557 1283 545.314 1283 563.384V608.745C1283 610.402 1284.36 611.5 1285.77 611.5C1286.45 611.5 1287.14 611.249 1287.7 610.689L1291.98 607.504C1292.47 607.14 1293.05 606.961 1293.62 606.961C1294.38 606.961 1295.13 607.275 1295.68 607.885L1303.06 616.196C1303.59 616.732 1304.3 617.002 1305 617.002C1305.7 617.002 1306.41 616.734 1306.95 616.196L1313.94 608.315C1314.49 607.7 1315.25 607.39 1316 607.39C1316.75 607.39 1317.51 607.698 1318.06 608.315L1325.05 616.196C1325.59 616.732 1326.3 617.002 1327 617.002C1327.7 617.002 1328.41 616.734 1328.94 616.196L1336.32 607.885C1336.78 607.371 1337.41 607.046 1338.1 606.975C1338.78 606.905 1339.47 607.093 1340.02 607.504L1344.3 610.689C1344.86 611.249 1345.55 611.5 1346.23 611.5C1347.64 611.5 1349 610.402 1349 608.745V562C1349 543.774 1334.23 529 1316 529ZM1343.5 603.236L1343.31 603.092C1341.87 602.025 1340.17 601.463 1338.38 601.463C1336.03 601.463 1333.78 602.473 1332.21 604.233L1327 610.103L1322.17 604.663C1320.6 602.901 1318.36 601.892 1316 601.892C1313.64 601.892 1311.4 602.903 1309.83 604.663L1305 610.103L1299.79 604.233C1299.01 603.362 1298.06 602.665 1297 602.187C1295.93 601.709 1294.78 601.463 1293.62 601.463C1291.83 601.463 1290.13 602.026 1288.7 603.092L1288.5 603.236V563.384C1288.5 547.906 1300.46 534.954 1315.15 534.514L1316 534.5C1331.16 534.5 1343.5 546.837 1343.5 562V603.236ZM1305 556.5C1301.96 556.5 1299.5 558.963 1299.5 562C1299.5 565.037 1301.96 567.5 1305 567.5C1308.04 567.5 1310.5 565.037 1310.5 562C1310.5 558.963 1308.04 556.5 1305 556.5ZM1327 556.5C1323.96 556.5 1321.5 558.963 1321.5 562C1321.5 565.037 1323.96 567.5 1327 567.5C1330.04 567.5 1332.5 565.037 1332.5 562C1332.5 558.963 1330.04 556.5 1327 556.5Z" fill="#005695"/>
</g>
<g clip-path="url(#clip2)">
<path d="M1764 485C1763.66 485 1763.32 485.005 1762.98 485.015C1744.92 485.557 1731 501.314 1731 519.384V564.745C1731 566.402 1732.36 567.5 1733.77 567.5C1734.45 567.5 1735.14 567.249 1735.7 566.689L1739.98 563.504C1740.47 563.14 1741.05 562.961 1741.62 562.961C1742.38 562.961 1743.13 563.275 1743.68 563.885L1751.06 572.196C1751.59 572.732 1752.3 573.002 1753 573.002C1753.7 573.002 1754.41 572.734 1754.95 572.196L1761.94 564.315C1762.49 563.7 1763.25 563.39 1764 563.39C1764.75 563.39 1765.51 563.698 1766.06 564.315L1773.05 572.196C1773.59 572.732 1774.3 573.002 1775 573.002C1775.7 573.002 1776.41 572.734 1776.94 572.196L1784.32 563.885C1784.78 563.371 1785.41 563.046 1786.1 562.975C1786.78 562.905 1787.47 563.093 1788.02 563.504L1792.3 566.689C1792.86 567.249 1793.55 567.5 1794.23 567.5C1795.64 567.5 1797 566.402 1797 564.745V518C1797 499.774 1782.23 485 1764 485ZM1791.5 559.236L1791.31 559.092C1789.87 558.025 1788.17 557.463 1786.38 557.463C1784.03 557.463 1781.78 558.473 1780.21 560.233L1775 566.103L1770.17 560.663C1768.6 558.901 1766.36 557.892 1764 557.892C1761.64 557.892 1759.4 558.903 1757.83 560.663L1753 566.103L1747.79 560.233C1747.01 559.362 1746.06 558.665 1745 558.187C1743.93 557.709 1742.78 557.463 1741.62 557.463C1739.83 557.463 1738.13 558.026 1736.7 559.092L1736.5 559.236V519.384C1736.5 503.906 1748.46 490.954 1763.15 490.514L1764 490.5C1779.16 490.5 1791.5 502.837 1791.5 518V559.236ZM1753 512.5C1749.96 512.5 1747.5 514.963 1747.5 518C1747.5 521.037 1749.96 523.5 1753 523.5C1756.04 523.5 1758.5 521.037 1758.5 518C1758.5 514.963 1756.04 512.5 1753 512.5ZM1775 512.5C1771.96 512.5 1769.5 514.963 1769.5 518C1769.5 521.037 1771.96 523.5 1775 523.5C1778.04 523.5 1780.5 521.037 1780.5 518C1780.5 514.963 1778.04 512.5 1775 512.5Z" fill="#005695"/>
</g>
<g clip-path="url(#clip3)">
<path d="M1422 787C1421.66 787 1421.32 787.005 1420.98 787.015C1402.92 787.557 1389 803.314 1389 821.384V866.745C1389 868.402 1390.36 869.5 1391.77 869.5C1392.45 869.5 1393.14 869.249 1393.7 868.689L1397.98 865.504C1398.47 865.14 1399.05 864.961 1399.62 864.961C1400.38 864.961 1401.13 865.275 1401.68 865.885L1409.06 874.196C1409.59 874.732 1410.3 875.002 1411 875.002C1411.7 875.002 1412.41 874.734 1412.95 874.196L1419.94 866.315C1420.49 865.7 1421.25 865.39 1422 865.39C1422.75 865.39 1423.51 865.698 1424.06 866.315L1431.05 874.196C1431.59 874.732 1432.3 875.002 1433 875.002C1433.7 875.002 1434.41 874.734 1434.94 874.196L1442.32 865.885C1442.78 865.371 1443.41 865.046 1444.1 864.975C1444.78 864.905 1445.47 865.093 1446.02 865.504L1450.3 868.689C1450.86 869.249 1451.55 869.5 1452.23 869.5C1453.64 869.5 1455 868.402 1455 866.745V820C1455 801.774 1440.23 787 1422 787ZM1449.5 861.236L1449.31 861.092C1447.87 860.025 1446.17 859.463 1444.38 859.463C1442.03 859.463 1439.78 860.473 1438.21 862.233L1433 868.103L1428.17 862.663C1426.6 860.901 1424.36 859.892 1422 859.892C1419.64 859.892 1417.4 860.903 1415.83 862.663L1411 868.103L1405.79 862.233C1405.01 861.362 1404.06 860.665 1403 860.187C1401.93 859.709 1400.78 859.463 1399.62 859.463C1397.83 859.463 1396.13 860.026 1394.7 861.092L1394.5 861.236V821.384C1394.5 805.906 1406.46 792.954 1421.15 792.514L1422 792.5C1437.16 792.5 1449.5 804.837 1449.5 820V861.236ZM1411 814.5C1407.96 814.5 1405.5 816.963 1405.5 820C1405.5 823.037 1407.96 825.5 1411 825.5C1414.04 825.5 1416.5 823.037 1416.5 820C1416.5 816.963 1414.04 814.5 1411 814.5ZM1433 814.5C1429.96 814.5 1427.5 816.963 1427.5 820C1427.5 823.037 1429.96 825.5 1433 825.5C1436.04 825.5 1438.5 823.037 1438.5 820C1438.5 816.963 1436.04 814.5 1433 814.5Z" fill="#005695"/>
</g>
<g clip-path="url(#clip4)">
<path d="M1091 378C1090.66 378 1090.32 378.005 1089.98 378.015C1071.92 378.557 1058 394.314 1058 412.384V457.745C1058 459.402 1059.36 460.5 1060.77 460.5C1061.45 460.5 1062.14 460.249 1062.7 459.689L1066.98 456.504C1067.47 456.14 1068.05 455.961 1068.62 455.961C1069.38 455.961 1070.13 456.275 1070.68 456.885L1078.06 465.196C1078.59 465.732 1079.3 466.002 1080 466.002C1080.7 466.002 1081.41 465.734 1081.95 465.196L1088.94 457.315C1089.49 456.7 1090.25 456.39 1091 456.39C1091.75 456.39 1092.51 456.698 1093.06 457.315L1100.05 465.196C1100.59 465.732 1101.3 466.002 1102 466.002C1102.7 466.002 1103.41 465.734 1103.94 465.196L1111.32 456.885C1111.78 456.371 1112.41 456.046 1113.1 455.975C1113.78 455.905 1114.47 456.093 1115.02 456.504L1119.3 459.689C1119.86 460.249 1120.55 460.5 1121.23 460.5C1122.64 460.5 1124 459.402 1124 457.745V411C1124 392.774 1109.23 378 1091 378ZM1118.5 452.236L1118.31 452.092C1116.87 451.025 1115.17 450.463 1113.38 450.463C1111.03 450.463 1108.78 451.473 1107.21 453.233L1102 459.103L1097.17 453.663C1095.6 451.901 1093.36 450.892 1091 450.892C1088.64 450.892 1086.4 451.903 1084.83 453.663L1080 459.103L1074.79 453.233C1074.01 452.362 1073.06 451.665 1072 451.187C1070.93 450.709 1069.78 450.463 1068.62 450.463C1066.83 450.463 1065.13 451.026 1063.7 452.092L1063.5 452.236V412.384C1063.5 396.906 1075.46 383.954 1090.15 383.514L1091 383.5C1106.16 383.5 1118.5 395.837 1118.5 411V452.236ZM1080 405.5C1076.96 405.5 1074.5 407.963 1074.5 411C1074.5 414.037 1076.96 416.5 1080 416.5C1083.04 416.5 1085.5 414.037 1085.5 411C1085.5 407.963 1083.04 405.5 1080 405.5ZM1102 405.5C1098.96 405.5 1096.5 407.963 1096.5 411C1096.5 414.037 1098.96 416.5 1102 416.5C1105.04 416.5 1107.5 414.037 1107.5 411C1107.5 407.963 1105.04 405.5 1102 405.5Z" fill="#005695"/>
</g>
<g clip-path="url(#clip5)">
<path d="M852.5 346H795.5C795.102 346 794.721 346.158 794.439 346.439C794.158 346.721 794 347.102 794 347.5V350.5C794 350.898 794.158 351.279 794.439 351.561C794.721 351.842 795.102 352 795.5 352H852.5C852.898 352 853.279 351.842 853.561 351.561C853.842 351.279 854 350.898 854 350.5V347.5C854 347.102 853.842 346.721 853.561 346.439C853.279 346.158 852.898 346 852.5 346ZM804.5 304H812V310C812 323.804 809.87 334.064 805.812 340H812.713C816.211 332.961 818 322.938 818 310V304H830V310C830 322.938 831.789 332.961 835.287 340H842.188C838.138 334.064 836 323.804 836 310V304H843.5C843.898 304 844.279 303.842 844.561 303.561C844.842 303.279 845 302.898 845 302.5V299.5C845 299.102 844.842 298.721 844.561 298.439C844.279 298.158 843.898 298 843.5 298H838.666C841.655 295.084 843.706 291.343 844.558 287.256C845.41 283.168 845.024 278.92 843.45 275.053C841.876 271.185 839.185 267.875 835.72 265.545C832.256 263.215 828.175 261.97 824 261.97C819.825 261.97 815.744 263.215 812.28 265.545C808.815 267.875 806.124 271.185 804.55 275.053C802.976 278.92 802.59 283.168 803.442 287.256C804.294 291.343 806.345 295.084 809.334 298H804.5C804.102 298 803.721 298.158 803.439 298.439C803.158 298.721 803 299.102 803 299.5V302.5C803 302.898 803.158 303.279 803.439 303.561C803.721 303.842 804.102 304 804.5 304ZM809 283C809 280.033 809.88 277.133 811.528 274.666C813.176 272.2 815.519 270.277 818.26 269.142C821.001 268.007 824.017 267.709 826.926 268.288C829.836 268.867 832.509 270.296 834.607 272.393C836.704 274.491 838.133 277.164 838.712 280.074C839.291 282.983 838.994 285.999 837.858 288.74C836.723 291.481 834.8 293.824 832.334 295.472C829.867 297.12 826.967 298 824 298C820.023 297.996 816.21 296.414 813.398 293.602C810.586 290.79 809.004 286.977 809 283Z" fill="#005695"/>
</g>
<g clip-path="url(#clip6)">
<path d="M142.5 554H85.5C85.1022 554 84.7206 554.158 84.4393 554.439C84.158 554.721 84 555.102 84 555.5V558.5C84 558.898 84.158 559.279 84.4393 559.561C84.7206 559.842 85.1022 560 85.5 560H142.5C142.898 560 143.279 559.842 143.561 559.561C143.842 559.279 144 558.898 144 558.5V555.5C144 555.102 143.842 554.721 143.561 554.439C143.279 554.158 142.898 554 142.5 554ZM94.5 512H102V518C102 531.804 99.87 542.064 95.8125 548H102.713C106.211 540.961 108 530.938 108 518V512H120V518C120 530.938 121.789 540.961 125.287 548H132.188C128.138 542.064 126 531.804 126 518V512H133.5C133.898 512 134.279 511.842 134.561 511.561C134.842 511.279 135 510.898 135 510.5V507.5C135 507.102 134.842 506.721 134.561 506.439C134.279 506.158 133.898 506 133.5 506H128.666C131.655 503.084 133.706 499.343 134.558 495.256C135.41 491.168 135.024 486.92 133.45 483.053C131.876 479.185 129.185 475.875 125.72 473.545C122.256 471.215 118.175 469.97 114 469.97C109.825 469.97 105.744 471.215 102.28 473.545C98.8151 475.875 96.1238 479.185 94.5497 483.053C92.9755 486.92 92.5899 491.168 93.442 495.256C94.2942 499.343 96.3454 503.084 99.3337 506H94.5C94.1022 506 93.7206 506.158 93.4393 506.439C93.158 506.721 93 507.102 93 507.5V510.5C93 510.898 93.158 511.279 93.4393 511.561C93.7206 511.842 94.1022 512 94.5 512ZM99 491C99 488.033 99.8797 485.133 101.528 482.666C103.176 480.2 105.519 478.277 108.26 477.142C111.001 476.006 114.017 475.709 116.926 476.288C119.836 476.867 122.509 478.296 124.607 480.393C126.704 482.491 128.133 485.164 128.712 488.074C129.291 490.983 128.994 493.999 127.858 496.74C126.723 499.481 124.8 501.824 122.334 503.472C119.867 505.12 116.967 506 114 506C110.023 505.996 106.21 504.414 103.398 501.602C100.586 498.79 99.0045 494.977 99 491Z" fill="#005695"/>
</g>
<g clip-path="url(#clip7)">
<path d="M1441.5 139H1384.5C1384.1 139 1383.72 139.158 1383.44 139.439C1383.16 139.721 1383 140.102 1383 140.5V143.5C1383 143.898 1383.16 144.279 1383.44 144.561C1383.72 144.842 1384.1 145 1384.5 145H1441.5C1441.9 145 1442.28 144.842 1442.56 144.561C1442.84 144.279 1443 143.898 1443 143.5V140.5C1443 140.102 1442.84 139.721 1442.56 139.439C1442.28 139.158 1441.9 139 1441.5 139ZM1393.5 97H1401V103C1401 116.804 1398.87 127.064 1394.81 133H1401.71C1405.21 125.961 1407 115.938 1407 103V97H1419V103C1419 115.938 1420.79 125.961 1424.29 133H1431.19C1427.14 127.064 1425 116.804 1425 103V97H1432.5C1432.9 97 1433.28 96.842 1433.56 96.5607C1433.84 96.2794 1434 95.8978 1434 95.5V92.5C1434 92.1022 1433.84 91.7206 1433.56 91.4393C1433.28 91.158 1432.9 91 1432.5 91H1427.67C1430.65 88.084 1432.71 84.3434 1433.56 80.2559C1434.41 76.1685 1434.02 71.9198 1432.45 68.0526C1430.88 64.1854 1428.18 60.8752 1424.72 58.5449C1421.26 56.2146 1417.18 54.97 1413 54.97C1408.82 54.97 1404.74 56.2146 1401.28 58.5449C1397.82 60.8752 1395.12 64.1854 1393.55 68.0526C1391.98 71.9198 1391.59 76.1685 1392.44 80.2559C1393.29 84.3434 1395.35 88.084 1398.33 91H1393.5C1393.1 91 1392.72 91.158 1392.44 91.4393C1392.16 91.7206 1392 92.1022 1392 92.5V95.5C1392 95.8978 1392.16 96.2794 1392.44 96.5607C1392.72 96.842 1393.1 97 1393.5 97ZM1398 76C1398 73.0333 1398.88 70.1332 1400.53 67.6665C1402.18 65.1997 1404.52 63.2771 1407.26 62.1418C1410 61.0065 1413.02 60.7095 1415.93 61.2882C1418.84 61.867 1421.51 63.2956 1423.61 65.3934C1425.7 67.4912 1427.13 70.1639 1427.71 73.0737C1428.29 75.9834 1427.99 78.9994 1426.86 81.7403C1425.72 84.4811 1423.8 86.8238 1421.33 88.472C1418.87 90.1203 1415.97 91 1413 91C1409.02 90.9955 1405.21 89.4138 1402.4 86.6017C1399.59 83.7896 1398 79.9769 1398 76Z" fill="#005695"/>
</g>
<g clip-path="url(#clip8)">
<path d="M1239.5 1006H1182.5C1182.1 1006 1181.72 1006.16 1181.44 1006.44C1181.16 1006.72 1181 1007.1 1181 1007.5V1010.5C1181 1010.9 1181.16 1011.28 1181.44 1011.56C1181.72 1011.84 1182.1 1012 1182.5 1012H1239.5C1239.9 1012 1240.28 1011.84 1240.56 1011.56C1240.84 1011.28 1241 1010.9 1241 1010.5V1007.5C1241 1007.1 1240.84 1006.72 1240.56 1006.44C1240.28 1006.16 1239.9 1006 1239.5 1006ZM1191.5 964H1199V970C1199 983.804 1196.87 994.064 1192.81 1000H1199.71C1203.21 992.961 1205 982.938 1205 970V964H1217V970C1217 982.938 1218.79 992.961 1222.29 1000H1229.19C1225.14 994.064 1223 983.804 1223 970V964H1230.5C1230.9 964 1231.28 963.842 1231.56 963.561C1231.84 963.279 1232 962.898 1232 962.5V959.5C1232 959.102 1231.84 958.721 1231.56 958.439C1231.28 958.158 1230.9 958 1230.5 958H1225.67C1228.65 955.084 1230.71 951.343 1231.56 947.256C1232.41 943.168 1232.02 938.92 1230.45 935.053C1228.88 931.185 1226.18 927.875 1222.72 925.545C1219.26 923.215 1215.18 921.97 1211 921.97C1206.82 921.97 1202.74 923.215 1199.28 925.545C1195.82 927.875 1193.12 931.185 1191.55 935.053C1189.98 938.92 1189.59 943.168 1190.44 947.256C1191.29 951.343 1193.35 955.084 1196.33 958H1191.5C1191.1 958 1190.72 958.158 1190.44 958.439C1190.16 958.721 1190 959.102 1190 959.5V962.5C1190 962.898 1190.16 963.279 1190.44 963.561C1190.72 963.842 1191.1 964 1191.5 964ZM1196 943C1196 940.033 1196.88 937.133 1198.53 934.666C1200.18 932.2 1202.52 930.277 1205.26 929.142C1208 928.007 1211.02 927.709 1213.93 928.288C1216.84 928.867 1219.51 930.296 1221.61 932.393C1223.7 934.491 1225.13 937.164 1225.71 940.074C1226.29 942.983 1225.99 945.999 1224.86 948.74C1223.72 951.481 1221.8 953.824 1219.33 955.472C1216.87 957.12 1213.97 958 1211 958C1207.02 957.996 1203.21 956.414 1200.4 953.602C1197.59 950.79 1196 946.977 1196 943Z" fill="#005695"/>
</g>
<g clip-path="url(#clip9)">
<path d="M1513.5 462H1456.5C1456.1 462 1455.72 462.158 1455.44 462.439C1455.16 462.721 1455 463.102 1455 463.5V466.5C1455 466.898 1455.16 467.279 1455.44 467.561C1455.72 467.842 1456.1 468 1456.5 468H1513.5C1513.9 468 1514.28 467.842 1514.56 467.561C1514.84 467.279 1515 466.898 1515 466.5V463.5C1515 463.102 1514.84 462.721 1514.56 462.439C1514.28 462.158 1513.9 462 1513.5 462ZM1465.5 420H1473V426C1473 439.804 1470.87 450.064 1466.81 456H1473.71C1477.21 448.961 1479 438.938 1479 426V420H1491V426C1491 438.938 1492.79 448.961 1496.29 456H1503.19C1499.14 450.064 1497 439.804 1497 426V420H1504.5C1504.9 420 1505.28 419.842 1505.56 419.561C1505.84 419.279 1506 418.898 1506 418.5V415.5C1506 415.102 1505.84 414.721 1505.56 414.439C1505.28 414.158 1504.9 414 1504.5 414H1499.67C1502.65 411.084 1504.71 407.343 1505.56 403.256C1506.41 399.168 1506.02 394.92 1504.45 391.053C1502.88 387.185 1500.18 383.875 1496.72 381.545C1493.26 379.215 1489.18 377.97 1485 377.97C1480.82 377.97 1476.74 379.215 1473.28 381.545C1469.82 383.875 1467.12 387.185 1465.55 391.053C1463.98 394.92 1463.59 399.168 1464.44 403.256C1465.29 407.343 1467.35 411.084 1470.33 414H1465.5C1465.1 414 1464.72 414.158 1464.44 414.439C1464.16 414.721 1464 415.102 1464 415.5V418.5C1464 418.898 1464.16 419.279 1464.44 419.561C1464.72 419.842 1465.1 420 1465.5 420ZM1470 399C1470 396.033 1470.88 393.133 1472.53 390.666C1474.18 388.2 1476.52 386.277 1479.26 385.142C1482 384.007 1485.02 383.709 1487.93 384.288C1490.84 384.867 1493.51 386.296 1495.61 388.393C1497.7 390.491 1499.13 393.164 1499.71 396.074C1500.29 398.983 1499.99 401.999 1498.86 404.74C1497.72 407.481 1495.8 409.824 1493.33 411.472C1490.87 413.12 1487.97 414 1485 414C1481.02 413.996 1477.21 412.414 1474.4 409.602C1471.59 406.79 1470 402.977 1470 399Z" fill="#005695"/>
</g>
<g clip-path="url(#clip10)">
<path d="M593.5 659H536.5C536.102 659 535.721 659.158 535.439 659.439C535.158 659.721 535 660.102 535 660.5V663.5C535 663.898 535.158 664.279 535.439 664.561C535.721 664.842 536.102 665 536.5 665H593.5C593.898 665 594.279 664.842 594.561 664.561C594.842 664.279 595 663.898 595 663.5V660.5C595 660.102 594.842 659.721 594.561 659.439C594.279 659.158 593.898 659 593.5 659ZM545.5 617H553V623C553 636.804 550.87 647.064 546.812 653H553.713C557.211 645.961 559 635.938 559 623V617H571V623C571 635.938 572.789 645.961 576.287 653H583.188C579.138 647.064 577 636.804 577 623V617H584.5C584.898 617 585.279 616.842 585.561 616.561C585.842 616.279 586 615.898 586 615.5V612.5C586 612.102 585.842 611.721 585.561 611.439C585.279 611.158 584.898 611 584.5 611H579.666C582.655 608.084 584.706 604.343 585.558 600.256C586.41 596.168 586.024 591.92 584.45 588.053C582.876 584.185 580.185 580.875 576.72 578.545C573.256 576.215 569.175 574.97 565 574.97C560.825 574.97 556.744 576.215 553.28 578.545C549.815 580.875 547.124 584.185 545.55 588.053C543.976 591.92 543.59 596.168 544.442 600.256C545.294 604.343 547.345 608.084 550.334 611H545.5C545.102 611 544.721 611.158 544.439 611.439C544.158 611.721 544 612.102 544 612.5V615.5C544 615.898 544.158 616.279 544.439 616.561C544.721 616.842 545.102 617 545.5 617ZM550 596C550 593.033 550.88 590.133 552.528 587.666C554.176 585.2 556.519 583.277 559.26 582.142C562.001 581.006 565.017 580.709 567.926 581.288C570.836 581.867 573.509 583.296 575.607 585.393C577.704 587.491 579.133 590.164 579.712 593.074C580.291 595.983 579.994 598.999 578.858 601.74C577.723 604.481 575.8 606.824 573.334 608.472C570.867 610.12 567.967 611 565 611C561.023 610.996 557.21 609.414 554.398 606.602C551.586 603.79 550.004 599.977 550 596Z" fill="#005695"/>
</g>
<g clip-path="url(#clip11)">
<path d="M1823.5 194H1766.5C1766.1 194 1765.72 194.158 1765.44 194.439C1765.16 194.721 1765 195.102 1765 195.5V198.5C1765 198.898 1765.16 199.279 1765.44 199.561C1765.72 199.842 1766.1 200 1766.5 200H1823.5C1823.9 200 1824.28 199.842 1824.56 199.561C1824.84 199.279 1825 198.898 1825 198.5V195.5C1825 195.102 1824.84 194.721 1824.56 194.439C1824.28 194.158 1823.9 194 1823.5 194ZM1775.5 152H1783V158C1783 171.804 1780.87 182.064 1776.81 188H1783.71C1787.21 180.961 1789 170.938 1789 158V152H1801V158C1801 170.938 1802.79 180.961 1806.29 188H1813.19C1809.14 182.064 1807 171.804 1807 158V152H1814.5C1814.9 152 1815.28 151.842 1815.56 151.561C1815.84 151.279 1816 150.898 1816 150.5V147.5C1816 147.102 1815.84 146.721 1815.56 146.439C1815.28 146.158 1814.9 146 1814.5 146H1809.67C1812.65 143.084 1814.71 139.343 1815.56 135.256C1816.41 131.168 1816.02 126.92 1814.45 123.053C1812.88 119.185 1810.18 115.875 1806.72 113.545C1803.26 111.215 1799.18 109.97 1795 109.97C1790.82 109.97 1786.74 111.215 1783.28 113.545C1779.82 115.875 1777.12 119.185 1775.55 123.053C1773.98 126.92 1773.59 131.168 1774.44 135.256C1775.29 139.343 1777.35 143.084 1780.33 146H1775.5C1775.1 146 1774.72 146.158 1774.44 146.439C1774.16 146.721 1774 147.102 1774 147.5V150.5C1774 150.898 1774.16 151.279 1774.44 151.561C1774.72 151.842 1775.1 152 1775.5 152ZM1780 131C1780 128.033 1780.88 125.133 1782.53 122.666C1784.18 120.2 1786.52 118.277 1789.26 117.142C1792 116.007 1795.02 115.709 1797.93 116.288C1800.84 116.867 1803.51 118.296 1805.61 120.393C1807.7 122.491 1809.13 125.164 1809.71 128.074C1810.29 130.983 1809.99 133.999 1808.86 136.74C1807.72 139.481 1805.8 141.824 1803.33 143.472C1800.87 145.12 1797.97 146 1795 146C1791.02 145.996 1787.21 144.414 1784.4 141.602C1781.59 138.79 1780 134.977 1780 131Z" fill="#005695"/>
</g>
<g clip-path="url(#clip12)">
<path d="M1670.5 950.938H1657.94V963.5H1670.5V950.938ZM1666.31 959.312H1662.12V955.125H1666.31V959.312ZM1695.62 963.5V950.938H1683.06V963.5H1695.62ZM1687.25 955.125H1691.44V959.312H1687.25V955.125ZM1683.06 938.375H1670.5V950.938H1683.06V938.375ZM1678.88 946.75H1674.69V942.562H1678.88V946.75ZM1657.94 963.5H1645.38V976.062H1657.94V963.5ZM1653.75 971.875H1649.56V967.688H1653.75V971.875ZM1657.94 988.625H1670.5V976.062H1657.94V988.625ZM1662.12 980.25H1666.31V984.438H1662.12V980.25ZM1695.62 988.625V976.062H1683.06V988.625H1695.62ZM1687.25 980.25H1691.44V984.438H1687.25V980.25ZM1670.5 976.062H1683.06V963.5H1670.5V976.062ZM1674.69 967.688H1678.88V971.875H1674.69V967.688ZM1699.81 930H1641.19C1640.08 930 1639.01 930.441 1638.23 931.226C1637.44 932.012 1637 933.077 1637 934.188V992.812C1637 993.923 1637.44 994.988 1638.23 995.774C1639.01 996.559 1640.08 997 1641.19 997H1699.81C1700.92 997 1701.99 996.559 1702.77 995.774C1703.56 994.988 1704 993.923 1704 992.812V934.188C1704 933.077 1703.56 932.012 1702.77 931.226C1701.99 930.441 1700.92 930 1699.81 930V930ZM1699.81 992.812H1641.19V934.188H1699.81V992.812ZM1645.38 938.375V950.938H1657.94V938.375H1645.38ZM1653.75 946.75H1649.56V942.562H1653.75V946.75Z" fill="#005695"/>
</g>
<g clip-path="url(#clip13)">
<path d="M186.5 917.938H173.938V930.5H186.5V917.938ZM182.312 926.312H178.125V922.125H182.312V926.312ZM211.625 930.5V917.938H199.062V930.5H211.625ZM203.25 922.125H207.438V926.312H203.25V922.125ZM199.062 905.375H186.5V917.938H199.062V905.375ZM194.875 913.75H190.688V909.562H194.875V913.75ZM173.938 930.5H161.375V943.062H173.938V930.5ZM169.75 938.875H165.562V934.688H169.75V938.875ZM173.938 955.625H186.5V943.062H173.938V955.625ZM178.125 947.25H182.312V951.438H178.125V947.25ZM211.625 955.625V943.062H199.062V955.625H211.625ZM203.25 947.25H207.438V951.438H203.25V947.25ZM186.5 943.062H199.062V930.5H186.5V943.062ZM190.688 934.688H194.875V938.875H190.688V934.688ZM215.812 897H157.188C156.077 897 155.012 897.441 154.226 898.226C153.441 899.012 153 900.077 153 901.188V959.812C153 960.923 153.441 961.988 154.226 962.774C155.012 963.559 156.077 964 157.188 964H215.812C216.923 964 217.988 963.559 218.774 962.774C219.559 961.988 220 960.923 220 959.812V901.188C220 900.077 219.559 899.012 218.774 898.226C217.988 897.441 216.923 897 215.812 897V897ZM215.812 959.812H157.188V901.188H215.812V959.812ZM161.375 905.375V917.938H173.938V905.375H161.375ZM169.75 913.75H165.562V909.562H169.75V913.75Z" fill="#005695"/>
</g>
<g clip-path="url(#clip14)">
<path d="M339.5 493.938H326.938V506.5H339.5V493.938ZM335.312 502.312H331.125V498.125H335.312V502.312ZM364.625 506.5V493.938H352.062V506.5H364.625ZM356.25 498.125H360.438V502.312H356.25V498.125ZM352.062 481.375H339.5V493.938H352.062V481.375ZM347.875 489.75H343.688V485.562H347.875V489.75ZM326.938 506.5H314.375V519.062H326.938V506.5ZM322.75 514.875H318.562V510.688H322.75V514.875ZM326.938 531.625H339.5V519.062H326.938V531.625ZM331.125 523.25H335.312V527.438H331.125V523.25ZM364.625 531.625V519.062H352.062V531.625H364.625ZM356.25 523.25H360.438V527.438H356.25V523.25ZM339.5 519.062H352.062V506.5H339.5V519.062ZM343.688 510.688H347.875V514.875H343.688V510.688ZM368.812 473H310.188C309.077 473 308.012 473.441 307.226 474.226C306.441 475.012 306 476.077 306 477.188V535.812C306 536.923 306.441 537.988 307.226 538.774C308.012 539.559 309.077 540 310.188 540H368.812C369.923 540 370.988 539.559 371.774 538.774C372.559 537.988 373 536.923 373 535.812V477.188C373 476.077 372.559 475.012 371.774 474.226C370.988 473.441 369.923 473 368.812 473V473ZM368.812 535.812H310.188V477.188H368.812V535.812ZM314.375 481.375V493.938H326.938V481.375H314.375ZM322.75 489.75H318.562V485.562H322.75V489.75Z" fill="#005695"/>
</g>
<g clip-path="url(#clip15)">
<path d="M722.5 95.9375H709.938V108.5H722.5V95.9375ZM718.312 104.312H714.125V100.125H718.312V104.312ZM747.625 108.5V95.9375H735.062V108.5H747.625ZM739.25 100.125H743.438V104.312H739.25V100.125ZM735.062 83.375H722.5V95.9375H735.062V83.375ZM730.875 91.75H726.688V87.5625H730.875V91.75ZM709.938 108.5H697.375V121.062H709.938V108.5ZM705.75 116.875H701.562V112.688H705.75V116.875ZM709.938 133.625H722.5V121.062H709.938V133.625ZM714.125 125.25H718.312V129.438H714.125V125.25ZM747.625 133.625V121.062H735.062V133.625H747.625ZM739.25 125.25H743.438V129.438H739.25V125.25ZM722.5 121.062H735.062V108.5H722.5V121.062ZM726.688 112.688H730.875V116.875H726.688V112.688ZM751.812 75H693.188C692.077 75 691.012 75.4412 690.226 76.2265C689.441 77.0118 689 78.0769 689 79.1875V137.812C689 138.923 689.441 139.988 690.226 140.774C691.012 141.559 692.077 142 693.188 142H751.812C752.923 142 753.988 141.559 754.774 140.774C755.559 139.988 756 138.923 756 137.812V79.1875C756 78.0769 755.559 77.0118 754.774 76.2265C753.988 75.4412 752.923 75 751.812 75V75ZM751.812 137.812H693.188V79.1875H751.812V137.812ZM697.375 83.375V95.9375H709.938V83.375H697.375ZM705.75 91.75H701.562V87.5625H705.75V91.75Z" fill="#005695"/>
</g>
<defs>
<clipPath id="clip0">
<rect width="66" height="88" fill="white" transform="translate(523 308)"/>
</clipPath>
<clipPath id="clip1">
<rect width="66" height="88" fill="white" transform="translate(1283 529)"/>
</clipPath>
<clipPath id="clip2">
<rect width="66" height="88" fill="white" transform="translate(1731 485)"/>
</clipPath>
<clipPath id="clip3">
<rect width="66" height="88" fill="white" transform="translate(1389 787)"/>
</clipPath>
<clipPath id="clip4">
<rect width="66" height="88" fill="white" transform="translate(1058 378)"/>
</clipPath>
<clipPath id="clip5">
<rect width="60" height="96" fill="white" transform="translate(794 256)"/>
</clipPath>
<clipPath id="clip6">
<rect width="60" height="96" fill="white" transform="translate(84 464)"/>
</clipPath>
<clipPath id="clip7">
<rect width="60" height="96" fill="white" transform="translate(1383 49)"/>
</clipPath>
<clipPath id="clip8">
<rect width="60" height="96" fill="white" transform="translate(1181 916)"/>
</clipPath>
<clipPath id="clip9">
<rect width="60" height="96" fill="white" transform="translate(1455 372)"/>
</clipPath>
<clipPath id="clip10">
<rect width="60" height="96" fill="white" transform="translate(535 569)"/>
</clipPath>
<clipPath id="clip11">
<rect width="60" height="96" fill="white" transform="translate(1765 104)"/>
</clipPath>
<clipPath id="clip12">
<rect width="67" height="67" fill="white" transform="translate(1637 930)"/>
</clipPath>
<clipPath id="clip13">
<rect width="67" height="67" fill="white" transform="translate(153 897)"/>
</clipPath>
<clipPath id="clip14">
<rect width="67" height="67" fill="white" transform="translate(306 473)"/>
</clipPath>
<clipPath id="clip15">
<rect width="67" height="67" fill="white" transform="translate(689 75)"/>
</clipPath>
</defs>
</svg>
