<svg width="2000" height="2000" viewBox="0 0 2000 2000" fill="none" xmlns="http://www.w3.org/2000/svg">
<circle cx="762.5" cy="105.5" r="55.5" fill="#D01611"/>
<circle cx="999.5" cy="271.5" r="41.5" fill="#D01611" stroke="#A20B07" stroke-width="10"/>
<circle cx="999.5" cy="409.5" r="41.5" fill="#D01611" stroke="#A20B07" stroke-width="10"/>
<circle cx="999.5" cy="547.5" r="41.5" fill="#D01611" stroke="#A20B07" stroke-width="10"/>
<circle cx="999.5" cy="685.5" r="41.5" fill="#D01611" stroke="#A20B07" stroke-width="10"/>
<circle cx="1740.5" cy="997.5" r="41.5" transform="rotate(90 1740.5 997.5)" fill="#0769B0" stroke="#005695" stroke-width="10"/>
<circle cx="1602.5" cy="997.5" r="41.5" transform="rotate(90 1602.5 997.5)" fill="#0769B0" stroke="#005695" stroke-width="10"/>
<circle cx="1464.5" cy="996.5" r="41.5" transform="rotate(90 1464.5 996.5)" fill="#0769B0" stroke="#005695" stroke-width="10"/>
<circle cx="1326.5" cy="996.5" r="41.5" transform="rotate(90 1326.5 996.5)" fill="#0769B0" stroke="#005695" stroke-width="10"/>
<circle cx="682.5" cy="997.5" r="41.5" transform="rotate(90 682.5 997.5)" fill="#F2C94C" stroke="#D8A50C" stroke-width="10"/>
<circle cx="544.5" cy="997.5" r="41.5" transform="rotate(90 544.5 997.5)" fill="#F2C94C" stroke="#D8A50C" stroke-width="10"/>
<circle cx="406.5" cy="996.5" r="41.5" transform="rotate(90 406.5 996.5)" fill="#F2C94C" stroke="#D8A50C" stroke-width="10"/>
<circle cx="268.5" cy="996.5" r="41.5" transform="rotate(90 268.5 996.5)" fill="#F2C94C" stroke="#D8A50C" stroke-width="10"/>
<circle cx="998.5" cy="1727.5" r="41.5" transform="rotate(-180 998.5 1727.5)" fill="#279500" stroke="#1C6A00" stroke-width="10"/>
<circle cx="998.5" cy="1589.5" r="41.5" transform="rotate(-180 998.5 1589.5)" fill="#279500" stroke="#1C6A00" stroke-width="10"/>
<circle cx="999.5" cy="1451.5" r="41.5" transform="rotate(-180 999.5 1451.5)" fill="#279500" stroke="#1C6A00" stroke-width="10"/>
<circle cx="999.5" cy="1313.5" r="41.5" transform="rotate(-180 999.5 1313.5)" fill="#279500" stroke="#1C6A00" stroke-width="10"/>
<circle cx="1907.5" cy="756.5" r="55.5" fill="#005695"/>
<circle cx="1646.5" cy="1910.5" r="42.5" fill="white" stroke="#279500" stroke-width="10"/>
<circle cx="97.5" cy="1672.5" r="42.5" transform="rotate(90 97.5 1672.5)" fill="white" stroke="#E7BA1A" stroke-width="10"/>
<circle cx="359.5" cy="97.5" r="42.5" transform="rotate(-180 359.5 97.5)" fill="white" stroke="#D01611" stroke-width="10"/>
<circle cx="1891.5" cy="348.5" r="42.5" transform="rotate(-90 1891.5 348.5)" fill="white" stroke="#005695" stroke-width="10"/>
<circle cx="1773.5" cy="1910.5" r="42.5" fill="white" stroke="#279500" stroke-width="10"/>
<circle cx="97.5" cy="1799.5" r="42.5" transform="rotate(90 97.5 1799.5)" fill="white" stroke="#E7BA1A" stroke-width="10"/>
<circle cx="232.5" cy="97.5" r="42.5" transform="rotate(-180 232.5 97.5)" fill="white" stroke="#D01611" stroke-width="10"/>
<circle cx="1891.5" cy="221.5" r="42.5" transform="rotate(-90 1891.5 221.5)" fill="white" stroke="#005695" stroke-width="10"/>
<circle cx="1900.5" cy="1910.5" r="42.5" fill="white" stroke="#279500" stroke-width="10"/>
<circle cx="97.5" cy="1926.5" r="42.5" transform="rotate(90 97.5 1926.5)" fill="white" stroke="#E7BA1A" stroke-width="10"/>
<circle cx="105.5" cy="97.5" r="42.5" transform="rotate(-180 105.5 97.5)" fill="white" stroke="#D01611" stroke-width="10"/>
<circle cx="1891.5" cy="94.5" r="42.5" transform="rotate(-90 1891.5 94.5)" fill="white" stroke="#005695" stroke-width="10"/>
<circle cx="1900.5" cy="1792.5" r="42.5" fill="white" stroke="#279500" stroke-width="10"/>
<circle cx="215.5" cy="1926.5" r="42.5" transform="rotate(90 215.5 1926.5)" fill="white" stroke="#E7BA1A" stroke-width="10"/>
<circle cx="105.5" cy="215.5" r="42.5" transform="rotate(-180 105.5 215.5)" fill="white" stroke="#D01611" stroke-width="10"/>
<circle cx="1773.5" cy="94.5" r="42.5" transform="rotate(-90 1773.5 94.5)" fill="white" stroke="#005695" stroke-width="10"/>
<circle cx="105.5" cy="1239.5" r="55.5" fill="#F2C94C"/>
<circle cx="1253.5" cy="1894.5" r="55.5" fill="#279500"/>
<circle cx="896" cy="105" r="40.5" fill="white" stroke="#005695" stroke-width="5"/>
<circle cx="1014" cy="105" r="40.5" fill="white" stroke="#005695" stroke-width="5"/>
<circle cx="1132" cy="105" r="40.5" fill="white" stroke="#005695" stroke-width="5"/>
<circle cx="1420" cy="757" r="40.5" fill="white" stroke="#005695" stroke-width="5"/>
<circle cx="1250" cy="107" r="40.5" transform="rotate(90 1250 107)" fill="white" stroke="#005695" stroke-width="5"/>
<circle cx="1252" cy="579" r="40.5" transform="rotate(-180 1252 579)" fill="white" stroke="#005695" stroke-width="5"/>
<circle cx="1774" cy="757" r="40.5" transform="rotate(-180 1774 757)" fill="white" stroke="#005695" stroke-width="5"/>
<circle cx="1250" cy="461" r="40.5" transform="rotate(-90 1250 461)" fill="white" stroke="#005695" stroke-width="5"/>
<circle cx="1656" cy="757" r="40.5" transform="rotate(-180 1656 757)" fill="white" stroke="#005695" stroke-width="5"/>
<circle cx="1250" cy="343" r="40.5" transform="rotate(-90 1250 343)" fill="white" stroke="#005695" stroke-width="5"/>
<circle cx="1538" cy="757" r="40.5" transform="rotate(-180 1538 757)" fill="white" stroke="#005695" stroke-width="5"/>
<circle cx="1250" cy="225" r="40.5" transform="rotate(-90 1250 225)" fill="white" stroke="#005695" stroke-width="5"/>
<circle cx="1327" cy="671" r="40.5" fill="white" stroke="#005695" stroke-width="5"/>
<circle cx="1907" cy="888" r="40.5" transform="rotate(90 1907 888)" fill="white" stroke="#005695" stroke-width="5"/>
<circle cx="1907" cy="1006" r="40.5" transform="rotate(90 1907 1006)" fill="white" stroke="#005695" stroke-width="5"/>
<circle cx="1907" cy="1124" r="40.5" transform="rotate(90 1907 1124)" fill="white" stroke="#005695" stroke-width="5"/>
<circle cx="1256" cy="1412" r="40.5" transform="rotate(90 1256 1412)" fill="white" stroke="#005695" stroke-width="5"/>
<circle cx="1906" cy="1242" r="40.5" transform="rotate(-180 1906 1242)" fill="white" stroke="#005695" stroke-width="5"/>
<circle cx="1434" cy="1243" r="40.5" transform="rotate(-90 1434 1243)" fill="white" stroke="#005695" stroke-width="5"/>
<circle cx="1256" cy="1766" r="40.5" transform="rotate(-90 1256 1766)" fill="white" stroke="#005695" stroke-width="5"/>
<circle cx="1552" cy="1243" r="40.5" fill="white" stroke="#005695" stroke-width="5"/>
<circle cx="1256" cy="1648" r="40.5" transform="rotate(-90 1256 1648)" fill="white" stroke="#005695" stroke-width="5"/>
<circle cx="1670" cy="1242" r="40.5" fill="white" stroke="#005695" stroke-width="5"/>
<circle cx="1256" cy="1530" r="40.5" transform="rotate(-90 1256 1530)" fill="white" stroke="#005695" stroke-width="5"/>
<circle cx="1788" cy="1242" r="40.5" fill="white" stroke="#005695" stroke-width="5"/>
<circle cx="1342" cy="1319" r="40.5" transform="rotate(90 1342 1319)" fill="white" stroke="#005695" stroke-width="5"/>
<circle cx="1123" cy="1892" r="40.5" transform="rotate(-180 1123 1892)" fill="white" stroke="#005695" stroke-width="5"/>
<circle cx="1005" cy="1892" r="40.5" transform="rotate(-180 1005 1892)" fill="white" stroke="#005695" stroke-width="5"/>
<circle cx="887" cy="1892" r="40.5" transform="rotate(-180 887 1892)" fill="white" stroke="#005695" stroke-width="5"/>
<circle cx="599" cy="1240" r="40.5" transform="rotate(-180 599 1240)" fill="white" stroke="#005695" stroke-width="5"/>
<circle cx="769" cy="1890" r="40.5" transform="rotate(-90 769 1890)" fill="white" stroke="#005695" stroke-width="5"/>
<circle cx="769" cy="1418" r="40.5" fill="white" stroke="#005695" stroke-width="5"/>
<circle cx="245" cy="1240" r="40.5" fill="white" stroke="#005695" stroke-width="5"/>
<circle cx="769" cy="1536" r="40.5" transform="rotate(90 769 1536)" fill="white" stroke="#005695" stroke-width="5"/>
<circle cx="363" cy="1240" r="40.5" fill="white" stroke="#005695" stroke-width="5"/>
<circle cx="769" cy="1654" r="40.5" transform="rotate(90 769 1654)" fill="white" stroke="#005695" stroke-width="5"/>
<circle cx="481" cy="1240" r="40.5" fill="white" stroke="#005695" stroke-width="5"/>
<circle cx="769" cy="1772" r="40.5" transform="rotate(90 769 1772)" fill="white" stroke="#005695" stroke-width="5"/>
<circle cx="692" cy="1326" r="40.5" transform="rotate(-180 692 1326)" fill="white" stroke="#005695" stroke-width="5"/>
<circle cx="104" cy="1109" r="40.5" transform="rotate(-90 104 1109)" fill="white" stroke="#005695" stroke-width="5"/>
<circle cx="104" cy="991" r="40.5" transform="rotate(-90 104 991)" fill="white" stroke="#005695" stroke-width="5"/>
<circle cx="104" cy="873" r="40.5" transform="rotate(-90 104 873)" fill="white" stroke="#005695" stroke-width="5"/>
<circle cx="756" cy="585" r="40.5" transform="rotate(-90 756 585)" fill="white" stroke="#005695" stroke-width="5"/>
<circle cx="106" cy="755" r="40.5" fill="white" stroke="#005695" stroke-width="5"/>
<circle cx="578" cy="755" r="40.5" transform="rotate(90 578 755)" fill="white" stroke="#005695" stroke-width="5"/>
<circle cx="756" cy="231" r="40.5" transform="rotate(90 756 231)" fill="white" stroke="#005695" stroke-width="5"/>
<circle cx="460" cy="755" r="40.5" transform="rotate(-180 460 755)" fill="white" stroke="#005695" stroke-width="5"/>
<circle cx="756" cy="349" r="40.5" transform="rotate(90 756 349)" fill="white" stroke="#005695" stroke-width="5"/>
<circle cx="342" cy="755" r="40.5" transform="rotate(-180 342 755)" fill="white" stroke="#005695" stroke-width="5"/>
<circle cx="756" cy="467" r="40.5" transform="rotate(90 756 467)" fill="white" stroke="#005695" stroke-width="5"/>
<circle cx="224" cy="755" r="40.5" transform="rotate(-180 224 755)" fill="white" stroke="#005695" stroke-width="5"/>
<circle cx="670" cy="678" r="40.5" transform="rotate(-90 670 678)" fill="white" stroke="#005695" stroke-width="5"/>
</svg>
