<svg width="200" height="400" viewBox="0 0 200 400" fill="none" xmlns="http://www.w3.org/2000/svg">
<path d="M30 152H168.5L200 400H0L30 152Z" fill="#A20B07"/>
<circle cx="100" cy="83" r="83" fill="#A20B07"/>
<path opacity="0.6" d="M62.5382 81.0806C61.1425 74.8683 62.0217 69.5481 66.0394 65.9322C69.5269 62.7933 73.5981 62.6559 76.9588 65.5161C81.0086 68.9629 81.8812 74.113 81.4651 78.6888C75.9917 78.5728 69.524 79.5435 62.5382 81.0806Z" fill="#0240ED"/>
<path opacity="0.6" d="M117.395 77.8568C117.259 72.8002 118.822 68.4755 122.595 65.6895C125.377 63.6356 129.298 63.6539 132.501 66.5995C135.802 69.6363 136.933 73.5029 136.92 77.8048C130.395 76.9031 123.886 76.8854 117.395 77.8568Z" fill="#0240E9"/>
<path d="M44.7552 52.7942C43.4386 54.2056 41.2872 52.4146 42.2333 50.2723C47.4668 38.4231 56.0386 29.1354 64.2541 26.5356C69.7454 24.7978 74.398 26.5118 77.4094 30.5913C78.5013 31.9432 76.2655 33.9712 75.1736 33.9192C71.1178 33.726 64.9057 34.3783 60.4064 37.247C55.8404 40.1583 50.5268 46.6065 44.7552 52.7942Z" fill="black"/>
<path d="M49.0707 55.498C48.0846 56.3923 47.3096 55.7159 48.0308 54.6661C52.5545 48.0798 58.4247 45.1793 66.3858 45.8266C72.9227 46.358 77.4639 49.0571 79.1771 54.0421C79.5119 55.0162 79.0182 55.6387 78.1891 54.978C73.8387 51.5116 69.4085 48.5491 64.6179 48.2704C59.5997 47.9784 54.8424 50.2636 49.0707 55.498Z" fill="black"/>
<path d="M123.757 32.1686C121.258 32.2375 120.345 29.0205 122.474 27.2462C127.882 22.7398 134.706 23.0777 140.535 27.3155C148.862 33.3708 156.411 44.128 157.832 48.3571C158.617 50.6929 156.446 52.0315 155.648 51.1649C154.437 49.848 144.255 39.1457 137.796 34.5259C134.44 32.1253 128.783 32.03 123.757 32.1686Z" fill="black"/>
<path d="M119.908 56.434C119.039 57.1519 118.626 56.5727 119.076 55.6713C121.191 51.4422 128.558 45.5847 135.646 45.6532C142.822 45.7225 151.8 51.9276 152.493 57.9939C152.611 59.0214 151.53 59.3452 151.003 58.5485C147.605 53.4182 142.4 49.4219 136.131 48.3571C131.072 47.4976 125.904 51.4796 119.908 56.434Z" fill="black"/>
<path d="M46.7307 88.1522C43.6662 88.9539 43.4178 87.4451 45.6561 86.3843C53.629 82.6059 64.9318 80.0474 76.8544 78.4461C80.3877 78.0971 83.0941 78.5355 84.8967 79.7633C86.1384 80.6092 86.1891 81.9912 84.4113 81.7739C81.2915 81.3926 77.5664 81.0893 73.5613 81.7392C64.656 83.1816 54.9462 86.003 46.7307 88.1522Z" fill="black"/>
<path d="M76.9243 77.1635C76.9243 72.9325 74.5576 69.5027 71.638 69.5027C68.7183 69.5027 66.3516 72.9325 66.3516 77.1635C66.3516 78.2455 66.5072 79.2744 66.7864 80.2076C70.3146 79.538 73.6745 79.0523 76.7983 78.8247C76.88 78.2896 76.9243 77.7342 76.9243 77.1635Z" fill="black"/>
<path d="M116.72 77.8828C112.533 78.7907 112.195 80.1053 116.85 80.7427C121.848 81.4271 127.748 80.6834 134.009 81.1067C141.182 81.5916 147.787 83.5232 154.028 84.7465C156.301 85.1921 156.924 83.6693 154.782 82.4586C149.998 79.7548 143.459 78.3309 136.894 77.5969C129.826 76.8065 123.119 76.4951 116.72 77.8828Z" fill="black"/>
<path d="M132.205 77.3096C132.261 76.96 132.292 76.6001 132.292 76.2318C132.292 72.9653 129.982 70.3172 127.131 70.3172C124.281 70.3172 121.971 72.9653 121.971 76.2318C121.971 76.607 122.003 76.9735 122.061 77.3292C125.438 77.0675 128.819 77.0657 132.205 77.3096Z" fill="black"/>
<path d="M69.038 73.9744C70.8089 73.9744 72.2445 72.0344 72.2445 69.6413C72.2445 67.2482 70.8089 65.3082 69.038 65.3082C67.2671 65.3082 65.8315 67.2482 65.8315 69.6413C65.8315 72.0344 67.2671 73.9744 69.038 73.9744Z" fill="white"/>
<path d="M124.545 74.737C126.268 74.737 127.665 72.8164 127.665 70.4472C127.665 68.078 126.268 66.1574 124.545 66.1574C122.822 66.1574 121.425 68.078 121.425 70.4472C121.425 72.8164 122.822 74.737 124.545 74.737Z" fill="white"/>
<path d="M71.4817 103.717C70.8027 104.608 69.8544 105.252 68.5698 105.589C68.6405 102.042 70.4725 100.233 73.8735 99.973C73.7474 100.657 73.3474 101.417 72.7642 102.226C79.8691 105.233 90.502 106.871 106.042 108.015C113.043 108.531 120.722 107.678 129.268 104.549C128.222 103.706 127.304 102.633 126.46 101.429C131.08 102.483 134.619 104.506 136.651 107.877C134.503 107.779 132.526 107.031 130.758 105.485C129.337 123.233 112.455 140.981 95.1577 135.158C100.552 135.317 105.656 134.509 110.376 132.419C102.183 135.055 94.5986 135.15 87.8088 131.934C91.0048 133.876 94.4684 135.598 98.243 137.064C78.3453 134.846 72.7989 119.143 71.4817 103.717Z" fill="black"/>
<path d="M103.096 127.878C101.047 125.368 100.973 123.379 103.278 122.86C107.437 121.924 111.441 123.003 114.353 125.668C115.759 126.971 115.667 128.043 114.301 128.918C109.434 131.505 103.116 133.107 95.3221 132.35C90.5401 131.885 86.6477 130.471 84.1167 128.502C82.9827 127.62 82.459 126.193 84.1427 125.278C90.7464 121.69 97.896 123.707 103.096 127.878Z" fill="#EF3536"/>
</svg>
